<?xml version="1.0" standalone="no"?>
<!DOCTYPE svg PUBLIC "-//W3C//DTD SVG 20010904//EN"
 "http://www.w3.org/TR/2001/REC-SVG-20010904/DTD/svg10.dtd">
<svg version="1.0" xmlns="http://www.w3.org/2000/svg"
 width="920.000000pt" height="1096.000000pt" viewBox="0 0 920.000000 1096.000000"
 preserveAspectRatio="xMidYMid meet">

<g transform="translate(0.000000,1096.000000) scale(0.100000,-0.100000)"
fill="#000000" stroke="none">
<path d="M4445 9769 c-4 -6 -5 -11 -4 -13 37 -27 68 -44 83 -47 14 -3 6 -11
-33 -32 -58 -32 -62 -51 -10 -54 l34 -1 -30 7 -30 7 41 7 c32 5 51 18 87 57
l46 50 -43 0 c-24 0 -63 7 -86 15 -51 18 -47 18 -55 4z"/>
<path d="M4866 9741 c-3 -5 6 -12 20 -15 31 -8 155 -116 148 -128 -3 -5 0 -7
8 -6 7 2 12 -3 10 -10 -1 -8 1 -11 6 -8 4 2 14 0 22 -5 13 -8 12 -12 -4 -24
-38 -29 -60 -19 -96 45 -19 33 -38 60 -42 60 -5 0 -6 5 -2 11 4 8 -1 9 -17 5
-13 -3 -18 -3 -11 0 14 7 16 44 2 44 -5 0 -10 -6 -10 -12 0 -8 -3 -9 -8 -3
-18 25 -46 9 -63 -35 -9 -25 -21 -57 -27 -71 -8 -19 -7 -30 1 -38 8 -8 7 -11
-6 -11 -9 0 -17 -5 -17 -10 0 -7 6 -7 19 0 34 18 70 11 103 -19 27 -25 31 -33
22 -48 -6 -10 -27 -23 -46 -30 -30 -10 -46 -9 -99 8 -98 29 -104 22 -10 -11
128 -46 148 -42 206 34 41 54 171 87 183 46 4 -12 2 -13 -9 -2 -7 6 -20 12
-28 12 -13 0 -14 -2 -2 -9 11 -7 10 -10 -5 -14 -12 -3 -6 -5 14 -6 17 0 32 -4
32 -8 0 -5 10 -19 21 -33 l21 -25 -16 27 c-9 15 -16 36 -16 48 0 11 -9 25 -20
32 -11 7 -20 18 -20 24 0 7 -8 20 -17 31 -10 10 -14 12 -8 3 6 -10 2 -9 -12 4
-13 10 -21 22 -18 26 2 4 -10 20 -27 36 -17 16 -28 23 -24 17 12 -22 -10 -14
-30 9 -19 22 -19 23 1 8 l20 -15 -20 24 c-33 39 -115 66 -129 42z m189 -101
c10 -11 16 -20 13 -20 -3 0 -13 9 -23 20 -10 11 -16 20 -13 20 3 0 13 -9 23
-20z m-200 0 c3 -5 -1 -10 -10 -10 -9 0 -13 5 -10 10 3 6 8 10 10 10 2 0 7 -4
10 -10z m131 -87 c13 -33 14 -47 6 -55 -15 -15 -21 -8 -25 28 -2 16 -14 49
-27 74 l-22 45 26 -24 c14 -13 33 -44 42 -68z m-137 0 c2 -2 -5 -3 -16 -3 -11
0 -20 7 -20 15 0 12 3 12 16 3 9 -7 18 -14 20 -15z"/>
<path d="M4976 9517 c3 -10 9 -15 12 -12 3 3 0 11 -7 18 -10 9 -11 8 -5 -6z"/>
<path d="M3940 9565 c-28 -30 -40 -32 -33 -5 9 34 -20 22 -52 -22 -34 -47
-110 -96 -200 -129 -70 -26 -117 -58 -111 -76 3 -7 0 -15 -6 -19 -7 -4 -8 -3
-4 4 4 7 5 12 3 12 -2 0 -17 -19 -32 -41 -15 -23 -21 -38 -15 -34 8 5 11 3 8
-6 -3 -8 -10 -14 -17 -14 -19 0 -40 -45 -41 -87 0 -20 -4 -39 -9 -42 -5 -3
-12 -21 -15 -39 -3 -19 -12 -42 -19 -51 -12 -17 -16 -17 -43 -3 -38 20 -74 5
-138 -53 -40 -37 -49 -41 -77 -35 -17 4 -55 4 -84 0 -52 -6 -54 -8 -70 -48 -8
-23 -19 -69 -23 -102 -6 -51 -10 -60 -29 -63 -30 -4 -45 -26 -38 -55 6 -24 10
-25 100 -29 98 -3 135 -19 135 -59 0 -19 17 -35 28 -25 3 4 1 15 -6 24 -7 9
-19 31 -27 47 -8 17 -14 24 -15 18 0 -9 -7 -10 -26 -3 -14 6 -41 10 -60 10
-33 0 -34 1 -36 43 l-1 42 -4 -37 c-3 -23 -10 -38 -17 -38 -20 0 6 128 36 183
23 41 24 42 83 45 68 4 139 -13 132 -31 -3 -7 -11 -11 -18 -9 -11 3 -11 1 -2
-9 10 -10 18 -8 40 13 16 14 54 42 86 63 l59 37 56 -45 c32 -24 74 -66 95 -93
71 -93 88 -225 33 -269 -22 -18 -26 -29 -26 -74 l0 -52 39 28 c30 21 41 37 45
64 8 47 66 101 134 123 43 15 52 22 66 57 9 22 16 43 16 48 0 12 -47 31 -73
30 -17 -1 -15 -3 8 -9 22 -5 15 -7 -29 -6 l-58 1 -19 72 c-10 40 -23 81 -29
93 -6 11 -7 20 -3 21 4 0 -1 4 -12 8 -11 5 -25 4 -32 -1 -9 -8 -13 -6 -13 5 0
9 -6 15 -12 12 -7 -2 -34 -6 -60 -9 -44 -4 -48 -3 -74 31 -25 34 -26 38 -13
62 12 22 23 26 64 29 71 3 83 -7 56 -49 l-23 -34 24 28 c30 35 34 34 32 -5 -1
-26 0 -27 3 -5 5 32 11 34 29 10 11 -16 11 -13 6 16 -4 19 -18 41 -32 50 -14
9 -21 11 -16 4 4 -7 3 -13 -3 -13 -18 0 -61 23 -61 33 0 5 -11 7 -25 5 -13 -3
-22 -1 -19 3 3 5 24 9 47 9 50 0 102 -29 125 -70 10 -18 25 -30 37 -29 17 0
16 2 -5 10 -19 8 -22 12 -10 19 8 5 17 7 22 4 4 -3 33 9 65 26 43 23 66 30 90
26 18 -2 35 -1 37 3 3 4 -7 8 -21 9 -35 3 -48 13 -32 23 18 11 68 10 94 -1 14
-6 3 -8 -35 -5 -51 4 -52 4 -15 -5 22 -5 54 -9 70 -9 l30 0 -25 20 c-22 18
-34 21 -90 16 -85 -7 -140 8 -140 39 0 13 5 35 12 49 9 20 18 25 47 25 36 0
74 18 56 26 -37 16 -58 30 -56 39 0 6 5 10 10 10 5 0 13 4 18 8 4 5 -13 6 -39
2 -25 -4 -53 -3 -62 2 -12 7 -8 9 16 10 65 1 198 23 234 38 49 20 34 37 -23
25 -44 -10 -143 -20 -143 -15 0 2 30 20 66 40 77 43 130 87 137 115 7 27 -5
25 -33 -5z m-275 -246 c76 -33 61 -34 -21 -1 l-51 21 -11 -25 c-7 -13 -16 -24
-22 -24 -6 0 -2 14 10 30 12 17 22 30 23 30 2 0 34 -14 72 -31z m-4 -24 c19
-8 29 -14 23 -15 -7 0 -27 7 -45 15 -19 8 -29 14 -23 15 7 0 27 -7 45 -15z
m-141 -15 c-6 -11 -13 -20 -16 -20 -2 0 0 9 6 20 6 11 13 20 16 20 2 0 0 -9
-6 -20z m52 -8 c15 -6 15 -11 3 -46 -22 -63 -46 -89 -83 -90 -18 -1 -31 4 -30
9 5 15 82 134 88 134 3 0 12 -3 22 -7z m-101 -65 c-10 -9 -11 -8 -5 6 3 10 9
15 12 12 3 -3 0 -11 -7 -18z m112 -39 c-8 -30 -23 -49 -34 -42 -5 3 1 18 13
35 26 35 28 35 21 7z m204 -34 c-3 -3 -12 -4 -19 -1 -8 3 -5 6 6 6 11 1 17 -2
13 -5z m-187 -86 c0 -6 -6 -5 -15 2 -8 7 -15 14 -15 16 0 2 7 1 15 -2 8 -4 15
-11 15 -16z"/>
<path d="M4177 9488 c-32 -40 -78 -109 -65 -98 11 9 107 140 103 140 -2 0 -19
-19 -38 -42z"/>
<path d="M3456 9502 c-3 -5 8 -6 25 -4 16 2 29 6 29 8 0 8 -49 4 -54 -4z"/>
<path d="M5025 9480 c-3 -5 -3 -10 1 -10 4 0 -3 -11 -16 -25 -13 -14 -18 -25
-12 -25 6 0 20 -20 31 -45 11 -25 22 -45 26 -45 5 0 -13 41 -36 84 -6 10 -6
17 -1 15 14 -6 142 -148 142 -158 0 -14 -29 -77 -31 -66 -1 6 -1 13 0 18 0 4
-4 7 -10 7 -7 0 -9 -10 -5 -25 5 -18 2 -25 -9 -25 -8 0 -15 8 -16 18 0 15 -1
15 -8 -2 -6 -17 -9 -15 -21 13 -15 37 -25 36 -11 -1 9 -23 6 -26 -40 -46 l-50
-21 7 -74 7 -75 -46 5 c-24 3 -52 1 -61 -4 -14 -8 -14 -11 -2 -28 12 -16 17
-18 27 -7 18 17 31 15 26 -5 -3 -10 -8 -36 -11 -58 -4 -30 -3 -35 4 -18 8 20
15 22 64 18 31 -2 65 -9 76 -15 26 -14 43 -55 35 -89 -4 -23 0 -28 45 -48 52
-23 94 -74 86 -106 -2 -9 0 -15 5 -11 31 19 -28 105 -88 131 -27 11 -33 19
-33 42 0 75 -44 111 -136 111 -32 0 -44 4 -41 13 7 22 119 14 155 -12 28 -20
56 -76 50 -99 -2 -5 13 -21 32 -34 l35 -24 -3 42 c-3 33 -9 45 -29 55 -50 27
-64 97 -38 186 14 48 101 193 124 207 11 7 173 -52 218 -80 15 -10 39 -27 53
-38 20 -17 19 -15 -4 12 -17 17 -36 32 -43 32 -25 0 -13 28 31 68 24 22 53 45
65 51 25 14 20 26 -22 52 -31 18 -32 18 -54 -3 -22 -21 -23 -21 -63 -3 -37 17
-41 17 -58 1 -18 -15 -22 -15 -68 1 -27 10 -57 27 -67 38 -15 18 -16 18 -11 1
4 -10 3 -21 -2 -25 -6 -3 -20 -19 -32 -35 l-23 -30 -69 72 c-39 40 -70 78 -70
86 0 7 15 20 33 30 29 15 20 15 -20 -1 -11 -4 -14 -3 -9 5 4 7 5 12 2 12 -3 0
-8 -4 -11 -10z m445 -173 c0 -2 -10 -12 -22 -23 l-23 -19 19 23 c18 21 26 27
26 19z m-287 -42 c-3 -9 -8 -14 -10 -11 -3 3 -2 9 2 15 9 16 15 13 8 -4z m-32
-78 c-10 -9 -11 -8 -5 6 3 10 9 15 12 12 3 -3 0 -11 -7 -18z m-164 -129 c-2
-13 -4 -3 -4 22 0 25 2 35 4 23 2 -13 2 -33 0 -45z"/>
<path d="M3465 9456 c10 -14 19 -26 22 -26 7 0 -17 39 -28 46 -6 3 -3 -5 6
-20z"/>
<path d="M3500 9400 c6 -11 13 -20 16 -20 2 0 0 9 -6 20 -6 11 -13 20 -16 20
-2 0 0 -9 6 -20z"/>
<path d="M4286 9350 c-20 -22 -36 -46 -36 -53 0 -6 6 -3 12 8 6 11 24 35 41
53 17 17 28 32 25 32 -3 0 -22 -18 -42 -40z"/>
<path d="M4032 9360 c0 -14 2 -19 5 -12 2 6 2 18 0 25 -3 6 -5 1 -5 -13z"/>
<path d="M4096 9365 c-9 -26 -7 -32 5 -12 6 10 9 21 6 23 -2 3 -7 -2 -11 -11z"/>
<path d="M4970 9366 c0 -2 7 -9 15 -16 13 -11 14 -10 9 4 -5 14 -24 23 -24 12z"/>
<path d="M5180 9330 c-6 -11 -8 -20 -6 -20 3 0 10 9 16 20 6 11 8 20 6 20 -3
0 -10 -9 -16 -20z"/>
<path d="M4222 9320 c0 -14 2 -19 5 -12 2 6 2 18 0 25 -3 6 -5 1 -5 -13z"/>
<path d="M5614 9314 c-18 -14 -18 -15 4 -4 12 6 22 13 22 15 0 8 -5 6 -26 -11z"/>
<path d="M5656 9317 c3 -10 9 -15 12 -12 3 3 0 11 -7 18 -10 9 -11 8 -5 -6z"/>
<path d="M4352 9270 c0 -14 2 -19 5 -12 2 6 2 18 0 25 -3 6 -5 1 -5 -13z"/>
<path d="M5020 9285 c0 -5 5 -17 10 -25 5 -8 10 -10 10 -5 0 6 -5 17 -10 25
-5 8 -10 11 -10 5z"/>
<path d="M5676 9275 c30 -105 30 -101 -6 -131 -18 -16 -46 -46 -61 -68 -16
-21 -29 -33 -29 -26 0 7 -2 11 -5 8 -3 -3 -1 -16 4 -29 6 -16 10 -18 10 -7 1
26 74 111 119 138 38 23 41 28 42 69 0 40 -1 42 -17 30 -10 -8 -21 -18 -25
-23 -3 -5 -14 6 -22 25 -9 19 -14 25 -10 14z"/>
<path d="M4480 9265 c-14 -8 -20 -14 -15 -14 6 0 21 6 35 14 14 8 21 14 15 14
-5 0 -21 -6 -35 -14z"/>
<path d="M3726 9245 c-3 -9 1 -30 9 -48 10 -21 12 -24 8 -7 -4 14 -7 35 -6 48
1 26 -3 28 -11 7z"/>
<path d="M4582 9235 c0 -16 2 -22 5 -12 2 9 2 23 0 30 -3 6 -5 -1 -5 -18z"/>
<path d="M5260 9171 c0 -5 25 -20 56 -33 31 -14 52 -28 47 -31 -13 -8 -82 -4
-77 5 13 21 -14 3 -34 -22 -18 -23 -21 -34 -13 -47 10 -17 10 -17 11 2 1 21
30 67 30 48 0 -7 -5 -15 -10 -18 -7 -4 0 -20 17 -39 15 -18 33 -41 38 -50 7
-13 9 -3 7 38 -5 77 14 72 26 -6 l10 -63 -1 70 c-1 39 2 75 5 81 5 7 -16 23
-52 42 -33 17 -60 27 -60 23z m54 -77 c-7 -3 -10 -15 -8 -27 4 -21 4 -21 -5
-2 -10 23 -5 35 12 34 9 0 9 -2 1 -5z"/>
<path d="M5740 9118 c0 -52 -2 -58 -37 -85 -32 -26 -34 -30 -17 -37 10 -4 15
-4 11 0 -4 4 2 14 14 22 11 8 23 11 27 7 10 -10 -39 -47 -54 -41 -10 4 -11
-22 -7 -118 4 -94 1 -134 -11 -176 -18 -62 -20 -78 -7 -64 11 11 57 217 66
299 4 33 12 66 17 73 6 6 10 47 9 89 -2 88 -11 114 -11 31z m-35 -235 c-8 -84
-15 -108 -15 -51 0 19 -3 56 -6 82 -6 39 -4 46 10 46 16 0 17 -8 11 -77z"/>
<path d="M4735 9150 c-3 -5 -1 -10 4 -10 6 0 11 5 11 10 0 6 -2 10 -4 10 -3 0
-8 -4 -11 -10z"/>
<path d="M5668 9080 c-26 -27 -48 -55 -48 -61 0 -7 15 8 34 33 19 24 45 52 58
61 12 9 19 16 14 16 -5 1 -31 -21 -58 -49z"/>
<path d="M4850 9080 c-6 -11 -8 -20 -6 -20 3 0 10 9 16 20 6 11 8 20 6 20 -3
0 -10 -9 -16 -20z"/>
<path d="M3724 9054 c-18 -14 -18 -15 4 -4 12 6 22 13 22 15 0 8 -5 6 -26 -11z"/>
<path d="M4809 9013 c-13 -16 -12 -17 4 -4 16 13 21 21 13 21 -2 0 -10 -8 -17
-17z"/>
<path d="M5260 9006 c0 -2 8 -10 18 -17 15 -13 16 -12 3 4 -13 16 -21 21 -21
13z"/>
<path d="M4769 8963 l-24 -28 28 24 c25 23 32 31 24 31 -2 0 -14 -12 -28 -27z"/>
<path d="M5570 8959 c-7 -11 -9 -23 -6 -27 3 -3 6 0 6 7 0 7 5 9 10 6 8 -5 7
-11 -1 -21 -7 -8 -7 -14 -1 -14 14 0 23 28 11 36 -6 3 -8 12 -5 20 8 21 -2 17
-14 -7z"/>
<path d="M5611 8944 c0 -11 3 -14 6 -6 3 7 2 16 -1 19 -3 4 -6 -2 -5 -13z"/>
<path d="M4650 8930 c0 -5 5 -10 11 -10 5 0 7 5 4 10 -3 6 -8 10 -11 10 -2 0
-4 -4 -4 -10z"/>
<path d="M4862 8933 c-7 -2 -17 -14 -23 -26 -11 -21 -10 -20 15 2 14 14 26 26
26 28 0 3 0 3 -18 -4z"/>
<path d="M5361 8928 c1 -7 5 -24 9 -38 8 -24 8 -24 9 7 1 17 -3 35 -9 38 -5 3
-10 0 -9 -7z"/>
<path d="M3321 8869 c-64 -46 -56 -52 12 -9 55 35 62 36 53 13 -4 -10 -4 -14
0 -10 4 4 23 -7 42 -25 l35 -33 -38 53 c-20 28 -40 52 -43 51 -4 0 -31 -18
-61 -40z"/>
<path d="M4653 8860 c0 -30 2 -43 4 -27 2 15 2 39 0 55 -2 15 -4 2 -4 -28z"/>
<path d="M4670 8910 c0 -3 9 -34 20 -68 27 -86 26 -98 -5 -69 -14 12 -40 31
-58 41 -31 17 -31 17 -8 -1 48 -37 121 -106 121 -115 0 -5 -6 -6 -12 -2 -8 4
-10 3 -5 -2 5 -5 13 -9 18 -9 5 0 9 -4 8 -9 0 -5 3 -12 8 -15 7 -5 93 -118
176 -231 18 -25 18 -25 1 5 -9 17 -38 60 -64 96 -44 61 -47 67 -34 90 7 13 13
31 13 39 0 8 -7 0 -15 -17 -13 -31 -34 -45 -34 -24 0 5 -16 33 -36 62 -21 32
-44 84 -55 127 -15 61 -38 120 -39 102z"/>
<path d="M5340 8890 c6 -11 13 -20 16 -20 2 0 0 9 -6 20 -6 11 -13 20 -16 20
-2 0 0 -9 6 -20z"/>
<path d="M5174 8881 c7 -11 46 -35 46 -28 0 3 -12 12 -26 22 -15 9 -23 12 -20
6z"/>
<path d="M4308 8873 c6 -2 18 -2 25 0 6 3 1 5 -13 5 -14 0 -19 -2 -12 -5z"/>
<path d="M4423 8873 c9 -2 25 -2 35 0 9 3 1 5 -18 5 -19 0 -27 -2 -17 -5z"/>
<path d="M4809 8863 c-13 -16 -12 -17 4 -4 9 7 17 15 17 17 0 8 -8 3 -21 -13z"/>
<path d="M4505 8860 c27 -12 43 -12 25 0 -8 5 -22 9 -30 9 -10 0 -8 -3 5 -9z"/>
<path d="M4946 8855 c-15 -8 -34 -15 -41 -15 -12 0 -41 -88 -32 -97 3 -2 10
16 16 41 l11 45 35 -20 c19 -12 59 -42 87 -68 41 -36 48 -40 31 -16 -12 17
-33 41 -47 54 -29 27 -33 41 -12 41 11 0 89 -103 91 -120 1 -12 18 -31 37 -41
26 -14 22 -8 -56 95 -100 129 -87 118 -120 101z m34 -9 c0 -14 -39 -30 -49
-20 -8 7 21 24 31 18 4 -3 8 0 8 5 0 6 2 11 5 11 3 0 5 -6 5 -14z"/>
<path d="M3030 8835 c-7 -9 -11 -17 -9 -20 3 -2 10 5 17 15 14 24 10 26 -8 5z"/>
<path d="M3365 8840 c-3 -5 -4 -14 0 -19 3 -5 0 -13 -6 -17 -8 -4 -9 -3 -5 4
4 7 2 12 -4 12 -6 0 -8 5 -4 12 4 7 3 8 -5 4 -6 -4 -9 -11 -6 -16 3 -4 -3 -6
-14 -3 -22 6 -30 -12 -20 -52 l7 -30 1 33 c1 35 31 48 31 13 0 -48 12 -53 36
-14 21 36 22 39 6 57 -17 19 -17 19 10 0 15 -10 28 -26 28 -34 0 -13 2 -13 9
-1 6 10 1 21 -19 37 -31 27 -36 28 -45 14z"/>
<path d="M4560 8840 c8 -5 20 -10 25 -10 6 0 3 5 -5 10 -8 5 -19 10 -25 10 -5
0 -3 -5 5 -10z"/>
<path d="M4298 8833 c7 -3 16 -2 19 1 4 3 -2 6 -13 5 -11 0 -14 -3 -6 -6z"/>
<path d="M4405 8826 c51 -14 105 -33 105 -39 0 -1 -18 -3 -40 -4 -80 -4 -136
-66 -243 -271 -109 -208 -161 -269 -285 -331 -37 -19 -46 -20 -60 -9 -13 11
-15 11 -9 -4 3 -10 2 -18 -4 -18 -6 0 -6 -7 1 -19 5 -11 10 -30 10 -43 1 -13
7 -39 14 -58 l12 -35 -100 49 c-55 27 -115 59 -132 72 -41 32 -50 30 -26 -3
11 -16 27 -44 36 -63 15 -30 9 -27 -45 30 -36 37 -49 48 -32 25 17 -22 41 -49
53 -60 13 -11 39 -45 58 -75 19 -30 46 -67 60 -82 l26 -28 -25 0 c-39 0 -239
-43 -239 -52 0 -4 11 -8 25 -8 23 0 48 -8 174 -55 l34 -12 -36 -13 c-44 -14
-47 -27 -9 -36 15 -3 43 -12 62 -19 l35 -13 -39 -16 c-21 -9 -42 -13 -47 -10
-17 10 -9 -5 13 -26 12 -11 34 -20 50 -20 15 0 28 -5 28 -11 0 -5 3 -8 8 -6 4
3 7 -8 8 -24 1 -35 -70 -123 -93 -115 -8 3 -11 1 -8 -4 3 -5 -14 -24 -40 -42
-25 -17 -45 -36 -45 -42 0 -5 11 0 24 13 l23 22 6 -56 c7 -67 31 -112 77 -142
43 -30 111 -31 151 -2 27 19 43 49 17 33 -6 -4 -8 -3 -5 3 11 18 52 8 53 -14
1 -11 4 -25 8 -32 4 -6 2 -11 -4 -11 -17 0 46 -114 102 -182 28 -34 42 -54 30
-44 -17 14 -22 16 -22 5 -1 -16 -23 18 -26 40 -4 25 -28 41 -44 31 -10 -7 -11
-10 -2 -10 14 0 17 -76 3 -85 -5 -3 -12 -19 -16 -35 -4 -17 -10 -28 -14 -26
-11 7 -66 -46 -84 -80 -26 -50 -26 -153 -1 -179 10 -9 24 -13 35 -10 19 6 19
5 2 -29 -11 -25 -27 -39 -47 -45 -17 -5 -23 -10 -13 -10 25 -1 22 -13 -28 -80
-25 -34 -43 -67 -39 -73 4 -6 3 -8 -4 -4 -6 3 -26 -18 -47 -51 l-36 -58 6 45
c4 25 8 51 11 58 2 8 -1 10 -8 6 -8 -5 -9 4 -5 32 4 21 7 60 7 86 0 36 3 46
14 42 8 -3 17 -1 21 5 3 7 -2 11 -14 11 -11 0 -26 9 -34 21 -11 15 -16 17 -21
7 -3 -7 -3 3 0 22 3 23 2 30 -4 22 -7 -11 -11 -8 -15 9 -4 13 -8 21 -11 19 -2
-3 4 -41 15 -85 11 -44 23 -128 26 -186 l6 -106 -30 -22 c-27 -21 -29 -26 -23
-61 5 -29 3 -43 -9 -56 -9 -10 -1 -6 16 9 18 14 41 28 51 31 10 3 23 21 29 38
11 30 11 31 -2 14 -8 -11 -15 -23 -15 -28 0 -4 -13 -14 -30 -23 -18 -9 -30
-11 -30 -5 0 6 11 16 25 22 14 6 25 20 25 31 0 10 31 58 68 105 104 132 145
197 111 176 -8 -4 -8 0 0 15 14 25 23 28 15 4 -4 -12 1 -10 16 7 21 24 21 24
-2 -19 -12 -25 -55 -94 -95 -153 -39 -59 -70 -108 -68 -108 2 0 25 29 50 65
25 35 67 80 93 99 26 19 58 45 70 59 l24 25 74 -73 c64 -65 134 -117 134 -100
0 3 -8 22 -19 43 -21 42 -66 177 -79 238 -7 29 -6 48 3 65 l13 24 19 -34 c22
-40 66 -93 57 -69 -4 13 -1 15 14 11 20 -5 32 -30 32 -67 0 -20 0 -20 -15 0
-9 10 -6 -1 6 -26 27 -56 27 -57 25 -27 0 14 -5 23 -10 20 -5 -3 -7 0 -4 7 8
26 27 21 33 -7 11 -47 17 -60 22 -46 3 7 15 -6 27 -30 19 -34 20 -44 10 -50
-19 -11 -18 -36 2 -44 8 -3 13 -12 10 -20 -3 -8 -2 -11 3 -8 5 3 13 0 17 -6 5
-8 3 -9 -6 -4 -9 6 -12 4 -8 -7 5 -13 -18 -49 -112 -170 -11 -14 -48 -48 -83
-73 -59 -45 -152 -141 -211 -218 -16 -20 -33 -34 -38 -31 -6 4 -6 9 -2 13 10
7 82 97 97 121 18 28 -73 -75 -119 -135 -60 -78 -79 -114 -59 -111 8 1 18 6
22 11 4 4 2 5 -4 1 -15 -8 -18 10 -3 19 6 3 10 1 10 -5 0 -6 5 -8 10 -5 6 3
10 11 10 16 0 6 -4 7 -10 4 -14 -9 -12 8 3 30 10 12 16 14 21 7 4 -7 2 -12 -3
-12 -6 0 -11 -5 -11 -11 0 -6 17 4 38 23 48 44 132 101 138 95 3 -2 -15 -16
-39 -30 -24 -14 -73 -57 -108 -95 -38 -40 -73 -68 -82 -66 -10 1 -15 -2 -11
-7 3 -5 10 -7 15 -4 13 8 13 9 -26 -70 -36 -73 -45 -76 -20 -6 8 22 12 41 9
41 -8 0 -26 -54 -29 -90 -2 -19 -7 -46 -10 -60 -5 -19 -4 -22 4 -10 19 26 13
-65 -6 -99 -18 -30 -20 -31 -93 -31 -213 1 -409 100 -488 247 -45 85 -53 151
-30 248 41 176 106 259 254 323 50 22 132 61 181 86 l91 45 7 59 c3 32 1 103
-5 158 -7 54 -14 117 -16 139 -2 22 -17 91 -34 153 -16 62 -33 149 -36 193
l-7 80 -23 -90 c-12 -50 -38 -126 -58 -168 -19 -43 -44 -102 -55 -130 -92
-234 -218 -396 -546 -696 -305 -279 -546 -574 -649 -791 -92 -195 -115 -397
-62 -546 39 -107 105 -178 213 -227 48 -23 75 -28 158 -31 55 -1 120 1 144 5
32 6 3 8 -100 8 -135 0 -147 2 -201 27 -109 51 -188 149 -219 272 -20 79 -7
266 25 359 94 278 319 553 641 782 57 41 68 45 83 34 15 -12 16 -12 4 2 -11
15 -5 22 50 56 72 46 108 65 108 60 0 -2 -27 -21 -60 -41 -33 -21 -60 -41 -60
-47 0 -5 -8 -9 -17 -10 -11 0 -13 -3 -5 -6 6 -2 10 -10 6 -16 -3 -7 0 -5 8 3
16 19 44 19 40 0 -2 -8 0 -12 4 -8 4 4 14 2 23 -5 14 -10 14 -10 4 3 -9 12 -7
20 8 39 10 13 19 18 19 12 0 -6 7 -8 15 -5 8 4 15 1 15 -6 0 -6 -4 -9 -9 -6
-5 4 -8 -1 -7 -9 1 -9 6 -14 12 -13 5 2 8 6 6 11 -1 4 2 7 7 7 5 0 19 20 31
45 12 25 26 45 31 45 6 0 7 6 3 13 -4 6 -4 9 1 5 4 -4 16 3 26 15 11 14 7 -2
-12 -41 -86 -181 -97 -441 -26 -594 25 -56 113 -162 127 -153 4 3 14 -3 21
-13 13 -16 12 -16 -6 -2 -19 14 -19 14 -3 -6 10 -11 37 -30 60 -42 24 -13 35
-17 24 -10 -80 55 -63 61 29 9 52 -30 174 -81 192 -81 4 0 -2 6 -12 14 -11 8
-23 12 -27 10 -5 -3 -8 0 -8 6 0 6 -5 8 -10 5 -6 -4 -9 -3 -8 2 1 4 -36 46
-83 93 -48 47 -91 95 -98 108 -7 12 24 -15 68 -60 83 -87 164 -152 175 -141 3
3 6 1 6 -5 0 -7 7 -12 17 -12 13 0 12 4 -7 20 -12 11 -26 17 -30 15 -4 -3 -14
2 -21 11 -10 12 -10 15 1 12 8 -2 14 2 15 9 0 6 3 15 7 19 4 4 3 13 -3 20 -7
8 -6 14 2 20 7 4 9 3 6 -3 -8 -13 17 -36 28 -25 5 4 5 1 1 -5 -4 -7 -3 -13 3
-13 5 0 8 -9 6 -21 -3 -13 0 -19 8 -16 15 5 17 28 4 45 -6 7 -7 15 -4 19 4 3
2 12 -4 20 -9 9 -8 13 0 13 6 0 11 -5 11 -10 0 -6 6 -10 13 -8 7 2 13 -1 13
-7 0 -5 -6 -9 -13 -7 -7 2 -13 -2 -13 -8 0 -6 5 -8 12 -4 7 4 8 3 4 -4 -4 -7
-1 -12 6 -12 11 0 10 -2 0 -9 -11 -7 -10 -9 3 -14 9 -4 13 -3 10 2 -3 5 0 13
6 16 5 4 8 13 5 21 -3 7 -1 16 4 19 5 3 11 -3 13 -12 3 -12 5 -10 6 7 0 14 4
42 7 64 l6 38 -45 -3 c-25 -2 -43 -1 -40 4 2 4 24 7 49 7 42 0 44 -1 44 -28 0
-16 -7 -75 -15 -132 -14 -94 -16 -182 -2 -100 23 140 37 239 37 261 0 41 31
62 79 54 23 -4 41 -12 41 -18 0 -9 2 -9 8 -1 10 16 44 14 38 -3 -4 -10 1 -9
19 3 23 15 30 14 107 -11 46 -15 90 -34 99 -42 9 -8 34 -19 55 -24 57 -15 235
-115 301 -168 92 -74 117 -123 94 -184 -11 -28 -82 -51 -306 -101 l-140 -32
-55 32 c-30 18 -63 39 -72 47 -9 9 -19 12 -23 9 -3 -4 -4 0 -1 8 11 30 -9 43
-55 34 -24 -4 -48 -6 -54 -4 -5 1 -44 3 -85 4 l-75 1 -6 50 c-7 56 -5 65 -14
-90 -2 -33 -7 -104 -12 -157 -8 -94 -2 -130 12 -69 9 40 29 55 62 47 34 -9
163 -92 163 -106 0 -6 -11 -16 -25 -22 -22 -10 -27 -8 -44 13 -11 14 -42 37
-69 52 l-49 27 -6 -48 c-3 -26 -2 -69 3 -97 7 -47 7 -45 9 33 l1 83 31 -18
c17 -10 36 -28 42 -41 9 -20 5 -28 -38 -72 -27 -27 -52 -47 -57 -44 -4 3 -9
-7 -9 -23 -2 -27 -2 -27 -6 -3 -3 14 -9 30 -13 35 -4 6 -8 34 -7 63 0 29 -3
55 -6 59 -19 18 1 -362 39 -774 4 -35 9 -61 13 -59 4 3 7 -10 7 -29 0 -19 -4
-31 -8 -29 -4 3 -8 -19 -7 -48 1 -51 1 -52 10 -19 6 18 12 31 14 29 8 -8 -8
-117 -16 -112 -13 8 -11 -34 6 -96 8 -30 14 -71 14 -90 -1 -31 -2 -29 -9 13
-9 52 -20 74 -20 40 0 -42 -94 -379 -112 -401 -10 -12 -10 -14 -1 -8 10 5 11
-1 5 -26 -4 -18 -7 -118 -7 -223 1 -185 2 -194 38 -335 48 -189 50 -203 31
-155 -42 105 -83 323 -86 462 -1 45 -4 80 -6 78 -20 -20 -168 -314 -183 -364
-9 -29 -15 -38 -19 -27 -3 9 -16 -30 -29 -86 -57 -251 -73 -313 -84 -327 -9
-11 -9 -13 0 -8 21 13 25 -31 7 -93 -9 -33 -20 -63 -25 -65 -4 -3 2 27 13 66
11 39 17 73 14 77 -3 3 -6 -3 -6 -14 0 -16 -2 -17 -10 -4 -8 11 -9 7 -4 -15 4
-23 3 -27 -5 -15 -9 12 -10 8 -5 -15 4 -24 3 -27 -6 -15 -9 13 -10 12 -6 -5 9
-32 -56 -223 -82 -241 -17 -12 -22 -12 -22 -2 -1 8 -6 6 -15 -5 -7 -11 -11
-25 -8 -32 9 -25 76 54 101 119 l22 61 -4 -44 c-3 -25 -14 -56 -26 -70 -11
-14 -28 -39 -38 -54 -9 -16 -29 -42 -44 -59 -16 -17 -28 -35 -28 -42 0 -6 -10
-16 -22 -21 -21 -9 -23 -15 -20 -80 2 -38 -1 -81 -7 -95 -10 -21 -11 -18 -7
25 1 28 1 40 -1 28 -2 -12 -11 -27 -19 -33 -8 -7 -14 -27 -14 -44 0 -17 -11
-77 -23 -134 -20 -88 -22 -104 -9 -111 12 -7 11 -20 -8 -86 -30 -106 -25 -169
22 -266 19 -41 50 -92 68 -113 27 -31 38 -36 59 -31 37 9 104 78 135 138 23
47 26 66 30 203 6 160 20 245 92 529 35 140 80 251 241 600 36 77 70 151 75
165 9 23 13 17 39 -65 42 -129 139 -513 139 -551 0 -53 12 -97 21 -82 6 9 8 5
7 -12 -1 -27 31 -192 40 -200 3 -3 2 11 -1 30 -5 31 -5 33 5 12 8 -16 9 -29 2
-40 -5 -9 -9 -32 -9 -50 1 -25 -2 -31 -13 -27 -12 4 -13 3 -2 -10 7 -8 16 -12
21 -9 5 3 9 -10 8 -28 -1 -31 -1 -32 -9 -8 -4 14 -8 21 -9 16 -1 -5 -8 -54
-17 -109 -14 -91 -14 -101 0 -109 19 -11 36 -71 35 -123 l-2 -40 -6 40 c-4 22
-11 46 -15 54 -19 31 -26 -19 -16 -113 6 -53 10 -133 8 -178 -2 -52 1 -82 7
-81 6 1 9 -17 7 -42 -6 -71 16 -186 49 -253 31 -63 131 -182 153 -182 44 0
117 151 142 293 13 71 12 92 -6 220 -11 78 -24 234 -30 347 -5 113 -16 250
-24 305 -19 126 -82 700 -90 820 -4 50 -15 223 -26 385 -11 162 -20 329 -20
372 0 73 2 78 36 119 66 80 96 130 150 256 66 157 105 221 245 414 62 85 148
207 191 271 43 65 89 125 102 134 14 9 22 22 19 30 -3 7 8 37 24 66 17 29 47
91 68 138 21 47 48 101 60 120 35 56 82 169 104 250 11 42 23 84 27 95 6 15 2
13 -17 -7 -19 -21 -34 -28 -69 -30 -25 -1 -54 4 -65 10 -11 6 -14 12 -7 12 6
0 11 10 11 23 -1 16 -2 18 -6 5 -5 -21 -24 -23 -41 -6 -10 10 -18 6 -37 -17
-27 -33 -31 -55 -14 -72 6 -6 8 -17 4 -23 -5 -8 -11 -4 -19 12 -6 12 -26 31
-45 40 -33 17 -71 58 -52 58 5 0 13 -4 16 -10 3 -5 11 -10 16 -10 6 0 7 4 4
10 -3 6 -1 10 5 10 6 0 9 4 6 8 -3 5 1 9 9 9 11 0 11 -4 -1 -22 -13 -19 -13
-24 1 -35 13 -11 19 -10 35 5 28 25 25 43 -2 19 l-23 -19 19 22 c10 13 22 20
27 18 4 -3 11 0 15 7 4 7 -6 23 -26 40 -34 28 -34 28 -10 29 21 1 22 2 5 6
-11 3 -65 36 -121 73 -56 37 -107 69 -114 72 -9 3 -9 12 3 39 11 26 23 38 43
42 320 69 465 91 491 72 9 -7 18 -33 21 -65 l5 -53 416 7 c570 10 725 -6 1120
-119 163 -46 210 -61 431 -143 188 -70 434 -179 901 -400 183 -86 179 -86 118
0 -85 119 -170 225 -291 363 -166 188 -290 297 -481 422 -62 41 -95 69 -90 76
4 7 24 39 45 71 42 65 46 87 21 107 -15 13 -15 12 -2 -8 12 -20 11 -27 -6 -59
-19 -36 -19 -36 -77 -31 -32 2 -55 1 -52 -4 3 -5 12 -9 21 -9 13 0 13 -2 2
-17 -13 -15 -12 -15 7 -3 12 7 29 10 39 6 15 -5 16 -9 4 -27 -8 -11 -18 -20
-22 -20 -4 0 -58 25 -120 57 -104 53 -110 58 -85 66 44 15 41 33 -6 33 -80 1
-93 9 -106 67 -7 29 -19 68 -26 87 -16 37 -12 50 9 33 8 -7 17 -9 20 -5 4 3 7
1 7 -6 0 -8 7 -11 15 -7 8 3 15 1 15 -5 0 -6 7 -9 15 -5 8 3 15 1 15 -5 0 -6
7 -8 16 -5 9 4 13 2 8 -5 -4 -8 1 -9 16 -4 17 5 21 4 15 -6 -6 -9 -3 -11 8 -6
10 3 17 2 17 -2 0 -10 54 -33 83 -36 10 -1 21 -6 25 -10 4 -5 0 -6 -9 -2 -9 3
-20 2 -25 -3 -5 -4 -49 8 -98 27 -48 19 -90 32 -92 30 -3 -2 28 -16 68 -31 40
-15 84 -33 98 -41 24 -14 22 -14 -40 -16 l-65 -3 75 -5 c56 -5 76 -3 78 7 5
16 22 15 22 -2 0 -10 11 -12 42 -10 22 2 43 6 46 9 8 8 -184 95 -296 135
l-104 37 -43 91 c-24 50 -57 111 -74 136 -27 39 -37 46 -76 52 -67 10 -287
-13 -398 -41 -54 -14 -99 -25 -101 -25 -2 0 -22 30 -44 68 -22 37 -60 86 -83
110 l-44 43 -142 -3 c-79 -2 -143 -2 -143 -1 0 5 167 55 245 73 121 29 125 30
125 40 0 35 -407 46 -630 16 -133 -18 -158 -23 -287 -62 -66 -20 -83 -28 -86
-47 -3 -12 -3 5 0 37 4 42 2 57 -6 52 -7 -5 -11 2 -11 19 0 15 -4 24 -10 20
-5 -3 -10 -1 -10 4 0 6 4 11 8 11 5 0 8 10 8 22 -2 43 172 94 206 60 10 -10
10 -15 -2 -22 -9 -6 -10 -10 -3 -10 32 0 23 46 -10 53 -18 4 -18 4 5 6 22 1
29 -5 43 -43 10 -25 21 -60 26 -78 7 -28 8 -27 3 12 -7 66 -34 114 -64 118
-21 2 -141 -35 -202 -62 -15 -7 -18 -2 -19 30 -1 38 -2 38 -9 9 -7 -29 -8 -29
-9 10 0 22 2 65 6 95 7 54 7 54 15 20 5 -24 6 -15 2 25 -3 42 -1 56 6 45 7
-10 8 -1 4 33 -6 40 -4 47 11 47 11 0 15 5 11 16 -3 9 -6 17 -6 19 0 2 -8 1
-17 -1 -34 -8 -47 12 -51 80 -4 65 -4 66 21 66 41 0 57 -25 58 -88 1 -44 4
-35 10 40 10 128 23 172 64 217 47 51 65 100 64 163 l-2 53 -7 -67 c-14 -116
-59 -169 -138 -160 -26 2 -48 5 -49 6 -1 1 9 24 22 51 69 135 -15 321 -159
355 l-31 8 29 1 c16 1 34 7 40 15 15 20 200 56 285 56 77 0 113 -10 151 -43
19 -16 18 -14 -4 11 -17 17 -26 32 -22 32 19 0 86 -45 86 -57 0 -8 5 -11 12
-7 6 4 8 3 5 -3 -3 -5 3 -22 14 -39 25 -38 25 -60 1 -36 -11 9 -17 20 -15 23
1 4 -4 10 -13 13 -8 3 -12 11 -8 17 4 7 3 9 -4 6 -19 -12 9 -62 42 -77 122
-51 122 -51 151 -40 20 8 27 5 40 -13 28 -39 36 -91 23 -133 -7 -20 -20 -40
-28 -42 -11 -4 -9 2 5 18 14 16 16 22 5 18 -8 -2 -19 -14 -25 -26 -8 -19 -25
-31 -25 -17 0 16 26 55 37 55 16 0 16 5 2 32 l-11 21 -17 -22 c-16 -21 -20
-22 -61 -11 l-44 12 39 24 c22 13 45 22 52 19 18 -6 24 10 15 36 l-9 23 -18
-22 c-21 -24 -48 -22 -102 10 l-32 19 11 -38 c19 -71 46 -108 149 -203 l102
-94 34 39 c19 22 45 59 59 82 25 41 25 45 13 95 -7 29 -16 55 -19 58 -4 3 -19
28 -34 56 -29 54 -89 103 -79 64 4 -16 2 -19 -13 -14 -11 4 -16 4 -12 0 6 -7
30 -14 56 -15 7 -1 10 -6 6 -12 -3 -6 -17 -8 -29 -5 -14 4 -25 1 -28 -6 -2 -7
-3 -5 -2 4 2 9 -6 25 -16 34 -23 20 -26 42 -4 24 9 -7 19 -10 22 -6 16 15 -17
41 -93 73 -104 45 -232 75 -321 75 l-72 0 20 36 c31 59 20 139 -26 182 -20 19
-24 30 -20 59 l5 36 -10 -32 c-16 -49 -30 -40 -25 15 2 26 2 38 -1 27 -10 -32
-25 -45 -53 -45 -24 0 -28 4 -28 33 -1 88 -7 135 -20 160 -8 16 -17 27 -20 24
-2 -3 0 -14 5 -24 5 -10 12 -49 16 -88 7 -81 -3 -108 -52 -142 l-33 -22 38 5
c21 3 59 16 86 28 26 13 47 21 47 18 0 -3 -15 -18 -32 -34 -18 -15 -25 -25
-16 -22 9 3 26 1 37 -6 26 -13 29 4 4 19 -28 16 -5 13 27 -4 33 -17 65 -63 36
-52 -13 5 -15 3 -7 -11 6 -11 6 -24 0 -35 -6 -9 -7 -17 -3 -17 3 0 0 -8 -7
-17 -10 -11 -10 -14 -1 -9 15 9 16 -13 1 -34 -9 -13 -10 -12 -5 3 4 11 2 16
-5 12 -6 -4 -8 -14 -5 -22 7 -17 -10 -43 -27 -43 -7 0 -7 4 1 12 16 16 15 71
-1 111 -8 18 -12 37 -10 44 7 19 -32 36 -77 33 -14 -1 -68 -2 -120 -3 -79 -1
-104 3 -147 22 -56 25 -133 99 -133 128 0 10 -13 -4 -29 -32 -35 -61 -55 -79
-106 -100 l-40 -17 36 31 c55 46 70 95 68 215 -1 86 2 109 20 143 20 40 38 59
46 51 2 -2 12 -53 21 -113 16 -104 19 -112 54 -147 21 -21 46 -38 56 -38 12 0
4 9 -24 26 -26 16 -41 31 -38 39 2 7 -2 16 -11 19 -10 4 -14 15 -11 30 3 14 2
30 -2 37 -5 6 -1 28 6 48 12 30 12 33 1 19 -20 -25 -25 -22 -20 10 7 40 34
122 41 122 3 0 15 -8 26 -17 18 -15 17 -14 -2 8 -20 23 -21 27 -7 39 8 7 17
11 18 9 29 -44 30 -60 7 -92 l-23 -32 24 20 c13 11 28 25 32 30 5 6 7 -2 4
-17 -2 -16 0 -28 5 -28 5 0 2 -7 -6 -16 -9 -8 -16 -20 -16 -25 0 -5 15 7 32
28 18 21 35 40 38 43 21 21 12 207 -16 312 -14 51 -26 93 -27 94 -1 1 -2 -34
-3 -79 -1 -45 -6 -99 -12 -119 -6 -22 -7 -38 -1 -38 5 0 9 -9 9 -20 0 -25 -20
-27 -20 -2 -1 11 -6 7 -17 -13 -31 -60 -133 -148 -150 -131 -3 3 1 8 10 12 16
6 87 95 87 108 0 4 -14 -9 -32 -29 -17 -20 -47 -45 -67 -56 -20 -11 -27 -18
-17 -14 16 5 17 3 5 -11 -7 -9 -22 -20 -34 -24 -16 -7 -17 -9 -3 -9 9 -1 20 4
23 9 3 6 10 10 16 10 18 0 -39 -95 -83 -137 -49 -47 -156 -123 -172 -123 -6 0
-47 20 -91 45 -44 24 -68 34 -52 22 15 -13 53 -36 84 -52 l57 -28 38 22 38 22
0 -21 c0 -27 -17 -60 -31 -60 -6 0 -17 -7 -25 -15 -18 -17 -70 -20 -108 -5
-14 5 -34 23 -44 40 -10 16 -21 28 -24 25 -2 -2 -22 13 -43 35 -21 22 -36 42
-33 45 3 3 22 -14 43 -37 22 -23 35 -33 31 -23 -5 11 -8 27 -9 35 0 8 -4 21
-10 28 -5 6 -6 12 -3 12 4 0 -9 14 -29 31 -21 18 -34 38 -31 46 4 8 -4 17 -18
23 -15 5 -29 23 -36 44 -6 20 -15 38 -20 41 -4 3 3 -25 17 -62 14 -38 26 -78
27 -90 1 -11 4 -19 7 -17 10 6 16 -62 8 -83 -4 -10 -9 -13 -10 -8 -1 6 -3 15
-4 20 -1 6 -10 27 -19 48 -9 21 -21 70 -25 108 -12 89 -51 156 -132 223 -32
27 -59 52 -59 56 0 4 15 13 33 21 17 7 51 25 73 40 23 16 45 25 50 21 5 -4 6
-3 2 1 -4 5 9 22 27 39 19 16 37 38 40 49 4 10 13 19 21 19 8 0 14 7 14 16 0
9 28 70 61 135 52 100 66 119 85 120 13 0 37 1 52 2 15 0 35 -3 43 -8 7 -5 34
-12 59 -15 l45 -5 -1 -40 -2 -40 11 33 c7 24 14 31 26 26 9 -4 24 -7 34 -9 11
-1 34 -13 52 -28 19 -15 41 -27 49 -27 8 0 21 -10 27 -22 8 -15 14 -18 17 -10
6 20 -87 199 -123 235 -116 114 -153 138 -217 136 -29 -1 -27 -2 17 -13z m48
-181 c-3 -9 -8 -14 -10 -11 -3 3 -2 9 2 15 9 16 15 13 8 -4z m97 -35 c0 -5 -5
-10 -11 -10 -5 0 -7 5 -4 10 3 6 8 10 11 10 2 0 4 -4 4 -10z m30 -5 c0 -8 -4
-15 -10 -15 -5 0 -10 7 -10 15 0 8 5 15 10 15 6 0 10 -7 10 -15z m100 -66 c0
-6 -4 -7 -10 -4 -5 3 -10 11 -10 16 0 6 5 7 10 4 6 -3 10 -11 10 -16z m208
-431 c0 -68 -1 -70 -9 -28 -7 39 -3 100 6 100 1 0 3 -33 3 -72z m15 -158 l-22
-45 -1 37 c0 40 8 70 19 64 3 -2 6 8 7 22 0 15 2 52 4 82 3 51 4 49 10 -30 5
-76 3 -90 -17 -130z m-33 67 c0 -50 -18 -39 -27 17 -5 31 -3 35 11 30 11 -4
16 -18 16 -47z m-880 -12 c13 -14 21 -25 18 -25 -2 0 -15 11 -28 25 -13 14
-21 25 -18 25 2 0 15 -11 28 -25z m-200 -16 c0 -6 -4 -7 -10 -4 -5 3 -10 11
-10 16 0 6 5 7 10 4 6 -3 10 -11 10 -16z m50 -25 c0 -2 -9 0 -20 6 -11 6 -20
13 -20 16 0 2 9 0 20 -6 11 -6 20 -13 20 -16z m190 -96 c12 -57 13 -131 3
-124 -22 13 -93 199 -93 240 0 5 18 -7 40 -29 28 -28 42 -51 50 -87z m-30 97
c13 -14 21 -25 18 -25 -2 0 -15 11 -28 25 -13 14 -21 25 -18 25 2 0 15 -11 28
-25z m-190 -15 c6 -11 8 -20 6 -20 -3 0 -10 9 -16 20 -6 11 -8 20 -6 20 3 0
10 -9 16 -20z m243 -37 c-4 -9 -2 -14 3 -10 10 6 12 -2 17 -68 3 -43 22 -84
69 -152 21 -31 24 -41 12 -36 -11 4 -15 3 -10 -5 3 -6 20 -10 36 -10 59 2 118
-70 104 -127 -4 -17 2 -34 22 -61 26 -33 26 -36 6 -23 -12 8 -25 22 -28 31 -3
10 -13 18 -23 18 -58 0 -141 68 -141 115 0 13 -3 31 -7 41 -5 13 -3 15 8 10 8
-4 6 -1 -5 6 -60 41 -60 43 -64 123 -3 55 -1 76 7 71 16 -10 13 11 -5 39 -9
14 -14 31 -11 39 3 7 -1 24 -10 37 l-15 24 21 -23 c11 -13 17 -30 14 -39z
m-138 -3 c10 -11 16 -20 13 -20 -3 0 -13 9 -23 20 -10 11 -16 20 -13 20 3 0
13 -9 23 -20z m-24 -30 c11 0 23 -8 26 -17 9 -24 29 -44 37 -36 3 3 10 -6 16
-21 13 -36 13 -41 -5 -26 -8 7 -12 17 -8 23 3 5 2 7 -4 4 -5 -4 -34 15 -64 40
-30 26 -46 44 -36 40 10 -4 27 -7 38 -7z m4 -70 c14 -7 8 -8 -20 -3 -22 3 -42
7 -44 9 -9 8 45 2 64 -6z m-129 -9 c-4 -5 7 -12 24 -16 16 -4 33 -11 37 -17 4
-8 0 -9 -13 -3 -10 4 -39 13 -64 20 -43 12 -44 13 -15 17 17 3 31 6 33 7 2 0
1 -3 -2 -8z m155 -25 c55 -16 96 -46 85 -64 -3 -5 1 -15 9 -22 8 -7 12 -17 8
-23 -3 -5 -2 -8 3 -5 5 4 27 -9 48 -27 43 -36 44 -65 2 -65 -20 0 -30 11 -56
64 -18 36 -29 69 -26 75 4 7 1 8 -8 5 -8 -3 -32 6 -53 20 -21 14 -42 26 -48
26 -5 0 -21 10 -35 21 -28 23 -29 23 71 -5z m-101 -76 c8 -5 11 -10 5 -10 -5
0 -17 5 -25 10 -8 5 -10 10 -5 10 6 0 17 -5 25 -10z m163 -60 c3 -11 1 -20 -4
-20 -5 0 -9 6 -9 13 0 8 -4 7 -11 -3 -9 -12 -10 -12 -5 3 3 10 6 23 6 28 0 17
17 1 23 -21z m525 0 c-3 -17 -1 -33 4 -36 5 -3 6 -9 3 -14 -3 -5 -1 -20 6 -32
10 -21 10 -21 -4 -8 -9 8 -17 26 -18 40 -3 39 0 80 7 80 4 0 4 -14 2 -30z
m-643 -35 l30 -14 -35 6 c-19 4 -46 10 -60 14 -24 7 -24 7 5 8 17 0 44 -6 60
-14z m595 -17 c0 -18 -2 -20 -9 -8 -6 8 -7 18 -5 22 9 14 14 9 14 -14z m392
-81 c37 -19 65 -37 61 -41 -3 -3 16 -6 43 -6 63 0 88 -14 42 -25 -18 -4 -27
-9 -20 -12 27 -11 9 -21 -42 -25 -34 -2 -52 1 -49 7 2 6 20 10 41 8 25 -2 18
2 -23 11 -91 21 -143 45 -171 80 -18 21 -24 24 -19 11 4 -14 3 -17 -5 -9 -6 6
-8 18 -4 27 5 15 12 13 48 -15 l41 -32 -32 35 c-18 19 -33 45 -33 57 0 21 1
21 28 -7 15 -17 57 -45 94 -64z m-418 67 c5 -14 4 -15 -9 -4 -17 14 -19 20 -6
20 5 0 12 -7 15 -16z m43 -6 c-3 -8 -6 -5 -6 6 -1 11 2 17 5 13 3 -3 4 -12 1
-19z m-354 -46 c-4 -10 -2 -13 5 -8 7 4 15 1 18 -8 3 -9 12 -16 20 -16 8 0 14
-4 14 -10 0 -5 7 -10 15 -10 7 0 19 -8 24 -17 8 -14 11 -15 11 -3 1 8 6 4 11
-9 10 -27 3 -43 -10 -22 -5 7 -13 11 -19 7 -5 -3 -15 1 -22 9 -7 8 -9 15 -4
15 5 0 -10 10 -33 22 -24 12 -43 27 -43 33 0 6 -17 17 -37 24 l-37 14 35 12
c28 9 36 9 46 -3 6 -8 9 -21 6 -30z m204 16 c-3 -7 -5 -2 -5 12 0 14 2 19 5
13 2 -7 2 -19 0 -25z m70 18 c-3 -8 -1 -16 4 -18 6 -2 7 -12 3 -22 -7 -18 -8
-18 -15 2 -8 21 -3 52 8 52 3 0 3 -6 0 -14z m-421 -12 c18 -15 18 -15 -5 -8
-16 4 -21 3 -17 -5 5 -7 1 -8 -10 -4 -13 5 -14 8 -5 11 11 4 11 6 0 13 -11 7
-11 9 2 9 8 0 24 -7 35 -16z m542 -24 c17 -27 10 -25 -19 6 -13 14 -17 23 -9
19 9 -3 21 -14 28 -25z m-631 -41 c15 -24 14 -28 -11 -65 -25 -39 -66 -174
-66 -221 0 -23 -1 -23 -24 -8 -13 9 -32 31 -40 50 -16 33 -15 37 9 96 28 71
96 180 108 176 5 -1 16 -14 24 -28z m214 4 c13 -16 12 -17 -3 -4 -10 7 -18 15
-18 17 0 8 8 3 21 -13z m-41 -35 c0 -4 -13 -2 -30 3 -16 6 -30 15 -30 19 0 5
14 3 30 -3 17 -6 30 -15 30 -19z m65 9 c4 5 5 2 1 -5 -8 -13 -39 -2 -52 19 -3
6 5 4 18 -5 14 -9 28 -13 33 -9z m1018 -2 c20 -14 37 -31 37 -38 0 -7 -3 -8
-8 -2 -26 36 -58 50 -126 56 l-71 6 65 1 c55 2 71 -2 103 -23z m-859 -20 c16
-25 16 -25 -9 -13 -26 11 -30 19 -18 31 9 10 9 10 27 -18z m250 -7 c-10 -10
-24 -16 -32 -13 -8 3 -12 0 -10 -7 3 -7 18 -13 34 -14 16 -1 40 -4 54 -8 25
-6 25 -6 3 5 -13 7 -23 18 -23 26 0 11 4 11 23 1 12 -7 30 -19 39 -27 14 -11
20 -11 33 -1 9 7 13 15 10 18 -2 3 -11 -1 -20 -8 -11 -9 -15 -9 -15 -1 0 6 7
14 15 17 8 4 12 10 9 15 -3 5 6 4 20 -3 24 -10 25 -13 10 -29 -14 -16 -14 -18
8 -22 22 -4 22 -4 -2 -6 -15 0 -30 -5 -36 -11 -6 -6 -22 -6 -44 0 -19 6 -51
10 -71 10 -19 0 -58 11 -84 25 -27 13 -51 22 -53 20 -3 -3 3 -7 12 -11 9 -3
16 -15 16 -26 0 -20 -1 -19 -18 3 -18 22 -27 63 -12 54 3 -2 32 -6 64 -9 53
-5 57 -4 51 13 -5 16 -2 18 15 14 20 -5 20 -6 4 -25z m-631 -40 c-17 -42 -27
-90 -31 -145 -4 -73 -7 -83 -23 -83 -17 0 -19 6 -13 58 7 71 22 128 41 167 14
27 42 65 48 65 2 0 -9 -28 -22 -62z m933 42 c7 0 20 -13 28 -29 14 -26 19 -28
63 -24 26 2 59 5 73 8 14 2 28 4 33 4 4 1 7 6 7 11 0 6 -6 10 -13 8 -7 -2 -14
2 -15 7 -1 6 4 10 11 11 6 0 27 4 45 8 34 8 92 -8 92 -25 0 -5 -12 -14 -27
-19 -16 -6 -37 -15 -47 -21 -11 -6 -42 -20 -70 -30 -28 -9 -45 -18 -39 -18 7
-1 35 7 62 18 l49 18 5 -26 c2 -14 7 -33 11 -42 5 -12 -4 -17 -49 -26 -56 -10
-57 -9 -110 28 -129 90 -185 138 -167 142 9 3 23 3 30 1 8 -2 20 -4 28 -4z
m-822 -19 c17 -7 26 -7 30 2 3 9 5 9 5 -1 1 -7 -5 -15 -13 -18 -8 -3 -12 -14
-9 -27 4 -19 3 -20 -9 -6 -7 9 -18 14 -24 12 -7 -2 -11 6 -10 22 0 14 2 25 3
25 1 0 13 -4 27 -9z m204 -39 c15 -18 14 -16 -4 36 -6 14 -3 13 16 -4 21 -20
21 -24 8 -67 l-13 -45 -21 66 c-12 37 -16 59 -10 49 6 -10 17 -26 24 -35z
m967 8 c3 -11 4 -24 1 -29 -4 -5 -1 -11 5 -13 17 -6 -10 -45 -35 -52 -11 -3
-28 2 -38 11 -23 21 -24 44 0 36 14 -5 13 -3 -3 10 -11 8 -18 17 -15 19 16 10
66 36 72 37 4 1 9 -8 13 -19z m-1068 -41 c-1 -6 9 -18 23 -26 l25 -15 -25 21
c-14 11 -20 21 -13 21 14 0 43 -27 43 -41 0 -14 -7 -12 -71 24 -37 20 -59 38
-59 50 0 16 3 16 40 -3 22 -11 39 -25 37 -31z m1160 -1 c-7 -18 -19 -34 -27
-36 -11 -4 -10 1 3 21 9 15 17 33 17 42 0 9 4 13 10 10 6 -4 5 -17 -3 -37z
m-517 12 c8 -5 11 -10 5 -10 -5 0 -17 5 -25 10 -8 5 -10 10 -5 10 6 0 17 -5
25 -10z m-280 -10 c-12 -8 -9 -10 12 -10 15 0 32 -8 37 -17 6 -11 11 -13 11
-5 0 17 120 -67 188 -132 58 -56 85 -114 96 -206 6 -46 3 -62 -16 -99 -13 -25
-30 -46 -38 -47 -8 -1 -45 -4 -82 -8 l-67 -7 -20 38 c-11 21 -20 34 -21 30 0
-4 7 -21 15 -37 17 -34 8 -40 -60 -40 -37 0 -50 6 -94 46 -28 25 -48 51 -44
56 3 6 1 8 -5 4 -6 -3 -28 20 -50 55 -31 47 -39 67 -33 83 10 27 41 34 42 9 0
-11 3 -13 6 -5 9 22 -16 43 -38 31 -15 -8 -19 -6 -19 8 0 28 16 47 31 38 12
-7 12 -6 1 6 -11 12 -15 11 -27 -4 -10 -13 -14 -15 -18 -5 -3 7 -6 -1 -6 -19
-1 -17 5 -33 12 -36 6 -2 8 -8 4 -13 -17 -17 -27 24 -27 109 0 67 3 87 14 87
17 0 35 -21 47 -57 l9 -28 -6 30 c-3 17 -6 41 -6 55 0 14 -3 20 -5 13 -2 -7
-11 -9 -18 -6 -12 4 -12 7 0 20 8 8 19 11 25 8 5 -3 10 0 10 8 0 23 42 37 70
22 21 -11 26 -10 43 11 10 13 24 24 30 24 7 0 6 -4 -3 -10z m184 -5 c-4 -9 0
-15 10 -15 9 0 16 6 16 13 0 6 8 0 18 -16 9 -15 22 -25 29 -22 7 2 13 0 13 -5
0 -14 -22 -12 -44 5 -11 8 -28 15 -37 15 -24 0 -35 20 -18 31 19 12 19 11 13
-6z m-634 -75 c-4 -45 -9 -59 -14 -47 -10 21 3 133 13 121 4 -5 5 -38 1 -74z
m655 26 c14 4 16 2 7 -4 -10 -7 -10 -11 3 -22 12 -10 18 -10 33 1 15 13 16 12
4 -3 -12 -15 -9 -18 35 -32 29 -9 39 -15 25 -15 -12 -1 -38 6 -58 14 -42 17
-145 96 -138 106 2 4 19 -6 36 -22 22 -20 39 -27 53 -23z m-688 -33 c-2 -16
-4 -3 -4 27 0 30 2 43 4 28 2 -16 2 -40 0 -55z m873 37 c41 -18 77 -34 79 -36
11 -10 -98 3 -110 13 -24 19 -96 52 -102 47 -3 -3 -8 -1 -11 4 -12 20 71 4
144 -28z m-44 -28 c-5 -4 -66 26 -66 33 0 3 16 -3 35 -12 19 -9 33 -18 31 -21z
m774 -16 c14 -6 25 -17 26 -23 2 -29 5 -33 33 -48 17 -8 37 -12 45 -9 11 4 16
1 16 -10 0 -35 -56 -33 -104 5 -19 15 -24 24 -16 29 19 12 7 45 -15 43 -11 -2
-31 6 -45 17 l-25 21 30 -7 c17 -4 41 -12 55 -18z m-715 -16 c3 -5 -3 -10 -14
-10 -11 0 -23 5 -26 10 -3 6 3 10 14 10 11 0 23 -4 26 -10z m54 -24 c-11 -9
-69 -15 -64 -6 3 6 20 10 37 10 17 0 29 -2 27 -4z m-111 -13 c-10 -2 -26 -2
-35 0 -10 3 -2 5 17 5 19 0 27 -2 18 -5z m-726 -34 c38 -19 54 -36 44 -46 -9
-9 -99 27 -113 45 -30 38 -5 38 69 1z m775 15 c-3 -3 -12 -4 -19 -1 -8 3 -5 6
6 6 11 1 17 -2 13 -5z m-55 -15 c3 -8 16 -8 47 1 61 16 61 7 0 -11 -47 -15
-51 -15 -60 3 -6 11 -6 18 0 18 5 0 11 -5 13 -11z m224 -4 c17 -7 41 -27 53
-44 26 -37 26 -37 -31 -11 -79 35 -138 43 -187 25 -51 -18 -51 -18 -51 -7 0 5
24 14 53 21 42 9 63 8 107 -3 30 -8 57 -13 59 -10 5 4 -8 9 -69 27 l-45 14 40
1 c22 0 54 -6 71 -13z m-953 -93 c23 -33 85 -111 137 -172 52 -62 103 -126
113 -143 l19 -32 -22 25 c-242 280 -300 353 -300 381 0 16 3 13 53 -59z m1613
46 c-10 -5 -23 -5 -33 1 -15 8 -11 10 15 9 26 -1 30 -3 18 -10z m134 -80 c0
-4 6 -5 14 -2 8 3 17 0 21 -5 3 -6 11 -8 17 -5 7 4 8 2 4 -4 -12 -20 -38 -14
-69 16 l-30 27 7 -30 c4 -16 7 -35 8 -42 1 -6 8 -9 16 -6 11 5 11 7 0 15 -10
8 -10 9 2 5 8 -2 16 -9 16 -15 1 -7 2 -17 3 -22 0 -6 11 -15 24 -20 14 -6 16
-9 6 -9 -9 -1 -24 8 -34 19 -10 11 -22 17 -26 14 -10 -6 -23 25 -33 79 l-7 38
30 -22 c17 -13 31 -26 31 -31z m-236 10 c18 -26 20 -38 6 -38 -5 0 -10 6 -10
14 0 8 -7 22 -16 30 -8 9 -11 16 -5 16 5 0 17 -10 25 -22z m76 -98 c13 -11 21
-22 18 -25 -2 -3 -15 6 -28 20 -28 30 -22 33 10 5z m140 -44 c0 -6 -7 -1 -15
10 -10 13 -14 15 -15 5 0 -8 -2 -12 -5 -9 -3 3 -3 13 1 22 6 15 7 15 20 -1 7
-10 14 -22 14 -27z m31 12 c8 -15 8 -18 0 -14 -6 4 -16 16 -22 28 -8 15 -8 18
0 14 6 -4 16 -16 22 -28z m-1734 -80 c-2 -18 -4 -6 -4 27 0 33 2 48 4 33 2
-15 2 -42 0 -60z m-44 30 c-3 -16 -9 -28 -14 -28 -5 0 -6 -6 -3 -13 2 -7 -2
-30 -9 -52 -12 -33 -19 -40 -41 -40 -42 -1 -60 -27 -59 -86 0 -69 -13 -43 -16
31 -2 66 12 101 55 140 30 26 36 30 54 30 6 0 16 11 22 25 14 31 18 28 11 -7z
m1727 -1 c12 -3 21 1 23 12 7 26 8 -34 0 -69 l-6 -33 -23 44 c-13 24 -23 53
-22 64 0 15 1 16 5 4 2 -10 13 -19 23 -22z m-1521 -102 c40 -49 51 -67 26 -40
-25 28 -52 49 -60 47 -8 -2 -15 2 -15 8 0 6 5 8 10 5 22 -14 8 11 -27 48 -21
22 -31 36 -22 31 9 -5 49 -49 88 -99z m88 23 c-6 -4 -15 -2 -19 5 -14 21 -9
28 12 15 13 -9 16 -14 7 -20z m-190 -50 c-3 -8 -6 -5 -6 6 -1 11 2 17 5 13 3
-3 4 -12 1 -19z m-142 -78 c-22 -67 -29 -60 -9 9 9 29 18 50 21 47 3 -2 -3
-28 -12 -56z m758 -19 c10 -17 18 -47 20 -68 l2 -38 -47 -3 c-43 -3 -48 -1
-48 18 0 11 -12 33 -26 47 -14 14 -27 33 -29 42 -5 35 -20 8 -23 -42 -3 -47 0
-55 28 -82 45 -43 39 -109 -19 -184 l-18 -23 -42 53 c-34 43 -42 60 -40 89 2
25 -7 49 -29 84 -18 28 -32 43 -33 35 0 -7 -4 -36 -8 -64 -7 -41 -5 -54 10
-73 29 -38 33 -76 10 -121 -12 -22 -26 -43 -33 -47 -9 -6 -9 -3 1 9 11 14 10
21 -13 48 -15 18 -25 38 -22 45 3 7 0 14 -7 17 -8 2 -11 29 -9 80 1 45 -2 78
-9 82 -16 10 -28 50 -22 73 3 14 15 21 40 24 32 4 34 2 30 -19 -2 -13 0 -23 4
-23 5 0 9 10 9 23 1 20 2 21 14 5 18 -24 29 -23 16 2 -11 21 -13 19 55 33 11
3 65 5 120 6 l101 1 17 -29z m-583 -1 c6 -11 8 -20 6 -20 -3 0 -10 9 -16 20
-6 11 -8 20 -6 20 3 0 10 -9 16 -20z m162 -36 c-3 -16 3 -36 16 -54 14 -18 19
-35 15 -51 -5 -19 -9 -14 -24 32 -20 59 -24 99 -10 99 4 0 6 -12 3 -26z m-22
-18 c0 -2 -9 -6 -20 -9 -11 -3 -18 -1 -14 4 5 9 34 13 34 5z m-20 -35 c0 -3
-7 -15 -15 -25 -12 -16 -15 -17 -15 -4 0 9 -3 23 -6 31 -4 12 0 14 15 10 12
-3 21 -8 21 -12z m30 9 c0 -5 -4 -10 -10 -10 -5 0 -10 5 -10 10 0 6 5 10 10
10 6 0 10 -4 10 -10z m-613 -62 c-3 -8 -6 -5 -6 6 -1 11 2 17 5 13 3 -3 4 -12
1 -19z m10 -60 c-3 -7 -5 -2 -5 12 0 14 2 19 5 13 2 -7 2 -19 0 -25z m133 -42
c0 -2 -8 -10 -17 -17 -16 -13 -17 -12 -4 4 13 16 21 21 21 13z m-154 -201 c-3
-20 -16 -31 -16 -13 0 13 8 28 16 28 1 0 1 -7 0 -15z m1252 -190 c-1 -19 -5
-35 -8 -35 -4 0 -13 -18 -20 -39 -11 -33 -10 -42 3 -61 14 -21 16 -21 25 -3 6
10 13 15 17 12 3 -4 -5 -19 -19 -34 -27 -29 -33 -45 -16 -45 6 0 10 -5 10 -12
0 -6 -11 -1 -24 12 -19 17 -24 29 -19 50 3 15 0 30 -5 34 -7 4 0 29 19 69 16
34 29 68 29 75 0 6 2 12 5 12 3 0 5 -16 3 -35z m-1768 0 c0 -2 -13 -11 -30
-20 -38 -19 -40 -11 -2 9 31 17 32 18 32 11z m2600 -50 c-14 -8 -29 -14 -35
-14 -5 0 1 6 15 14 14 8 30 14 35 14 6 0 -1 -6 -15 -14z m-811 -55 c0 -9 -4
-8 -9 5 -5 11 -9 27 -9 35 0 9 4 8 9 -5 5 -11 9 -27 9 -35z m221 -155 c6 -16
13 -66 15 -110 l4 -80 -9 66 c-4 37 -17 104 -29 150 -11 46 -22 102 -25 124
-3 22 3 4 14 -40 11 -44 24 -93 30 -110z m900 150 c17 -16 28 -35 26 -42 -3
-7 0 -12 6 -10 14 2 89 -115 79 -125 -3 -4 -55 -27 -116 -53 -174 -73 -299
-143 -601 -341 -156 -101 -285 -184 -287 -184 -3 0 2 24 10 53 8 28 17 111 20
184 l6 132 131 129 c173 170 310 266 401 283 22 4 97 7 167 6 126 -2 127 -2
158 -32z m-405 17 c-18 -15 -85 -54 -85 -48 0 3 19 16 43 30 43 26 59 33 42
18z m-2653 -33 c-9 -23 -25 -27 -30 -7 -3 11 -2 11 6 0 7 -11 10 -9 15 7 3 12
8 21 11 21 3 0 2 -9 -2 -21z m2558 -22 c0 -2 -35 -31 -77 -64 -43 -34 -124
-109 -180 -166 -57 -57 -103 -101 -103 -97 0 12 223 227 290 279 64 50 70 54
70 48z m-1675 -117 c-5 -8 -11 -8 -17 -2 -6 6 -7 16 -3 22 5 8 11 8 17 2 6 -6
7 -16 3 -22z m185 -5 c0 -5 -5 -3 -10 5 -5 8 -10 20 -10 25 0 6 5 3 10 -5 5
-8 10 -19 10 -25z m-32 -47 c-4 -16 -37 -42 -45 -34 -3 3 1 8 10 12 9 3 13 12
10 20 -3 8 1 14 11 14 9 0 15 -6 14 -12z m1169 -120 c-3 -7 -5 -2 -5 12 0 14
2 19 5 13 2 -7 2 -19 0 -25z m-1320 -62 c-8 -24 -28 37 -21 62 7 26 7 26 16
-12 4 -22 7 -44 5 -50z m99 30 c-4 -18 -14 -25 -41 -28 -42 -5 -44 4 -7 27 15
10 31 25 36 34 13 21 20 -1 12 -33z m-148 -16 c16 0 53 -61 45 -73 -3 -6 -1
-7 6 -3 6 4 9 11 6 16 -10 16 32 30 87 30 40 0 60 5 76 20 29 27 31 26 22 -17
-6 -23 -24 -51 -50 -75 l-41 -39 -31 18 c-48 28 -49 47 -2 40 l39 -5 -30 13
c-25 11 -34 11 -50 1 -26 -17 -31 -63 -9 -87 16 -18 16 -19 -11 -17 -15 2 -30
8 -32 16 -4 10 -9 10 -19 1 -21 -18 -30 -2 -11 19 20 22 22 73 5 90 -7 7 -22
12 -35 12 -20 0 -23 5 -23 42 l0 41 23 -21 c13 -12 29 -22 35 -22z m169 -12
c-3 -8 -6 -5 -6 6 -1 11 2 17 5 13 3 -3 4 -12 1 -19z m1180 -145 c-2 -32 -3
-8 -3 52 0 61 1 87 3 58 2 -29 2 -78 0 -110z m-1364 69 c-15 -11 -20 -10 -30
5 -20 27 -15 32 17 20 28 -11 29 -13 13 -25z m2992 -142 l-27 -28 30 -16 c17
-9 38 -16 47 -16 8 0 15 -2 15 -4 0 -2 3 -12 6 -21 6 -14 -3 -12 -44 9 -28 14
-69 28 -92 32 l-41 7 50 28 c27 16 52 33 56 39 3 6 11 8 17 4 5 -4 -2 -18 -17
-34z m143 -5 c13 -11 -20 -10 -53 1 l-40 12 45 -5 c25 -3 46 -7 48 -8z m46
-14 c3 -5 0 -11 -7 -14 -8 -3 -14 1 -14 9 0 16 13 19 21 5z m-3337 -23 c-3 12
-1 20 4 16 12 -7 11 -17 -2 -51 -10 -27 -11 -27 -25 -9 -9 13 -14 15 -14 6 0
-7 -3 -10 -7 -6 -5 4 1 14 11 22 13 9 16 18 10 27 -5 7 0 4 10 -8 l19 -20 -6
23z m558 2 c3 -6 -1 -7 -9 -4 -18 7 -21 14 -7 14 6 0 13 -4 16 -10z m2225 -16
c-343 -24 -542 -58 -639 -108 -20 -11 -37 -13 -53 -7 -13 4 -57 12 -100 15
l-76 8 21 32 c21 30 25 32 72 28 27 -2 100 4 160 13 61 9 178 19 260 22 83 3
152 7 153 9 2 1 90 2 195 2 l192 0 -185 -14z m250 4 c0 -5 -9 -8 -19 -8 -11 0
-22 3 -24 8 -3 4 6 7 19 7 13 0 24 -3 24 -7z m-1510 -142 c0 -2 -7 -6 -15 -10
-8 -3 -15 -1 -15 4 0 6 7 10 15 10 8 0 15 -2 15 -4z m74 -18 c-3 -4 -12 -4
-21 -1 -10 4 -14 2 -10 -4 5 -7 0 -9 -14 -6 -16 4 -17 8 -7 14 16 10 58 8 52
-3z m151 -18 c-11 -4 -48 -16 -82 -26 -35 -9 -63 -21 -63 -26 0 -5 -4 -7 -9
-4 -13 8 -98 -29 -104 -46 -3 -7 -5 10 -5 37 1 28 3 37 5 22 5 -30 10 -30 76
-2 19 8 25 14 16 17 -8 3 0 5 16 6 17 0 57 7 90 15 68 17 89 20 60 7z m-215
-14 c0 -2 -7 -7 -16 -10 -8 -3 -12 -2 -9 4 6 10 25 14 25 6z m-1483 -184 c8
-5 9 -13 3 -22 -6 -8 -10 -33 -11 -55 l-1 -40 -10 43 c-7 33 -6 47 4 60 9 11
10 14 1 8 -7 -4 -13 -2 -13 3 0 13 10 14 27 3z m311 -149 c37 -37 55 -56 40
-44 -25 22 -27 22 -37 4 -10 -17 -10 -17 -11 0 0 12 -4 16 -12 11 -7 -4 -10
-4 -6 1 4 4 2 15 -4 24 -8 10 -4 9 10 -3 12 -11 25 -17 28 -14 2 3 -14 21 -38
39 -32 26 -40 29 -34 14 16 -39 17 -60 1 -26 -8 19 -13 36 -11 39 3 2 -5 13
-17 24 l-22 19 23 -11 c13 -6 53 -41 90 -77z m-338 37 c0 -16 -4 -30 -8 -30
-5 0 -7 14 -4 30 2 17 6 30 8 30 2 0 4 -13 4 -30z m548 19 c-10 -5 -18 -21
-18 -34 0 -14 -5 -25 -11 -25 -5 0 -8 -4 -4 -9 3 -5 2 -12 -3 -15 -5 -3 -14
11 -21 30 -9 24 -19 34 -34 35 -12 1 3 7 33 14 70 16 79 17 58 4z m480 -31 c5
-26 -34 -23 -41 3 -4 16 -1 20 16 17 12 -2 23 -11 25 -20z m-650 -2 c-13 -14
-28 -12 -28 5 0 5 9 9 20 9 17 0 19 -2 8 -14z m547 -35 c39 -19 86 -50 105
-70 20 -20 44 -41 54 -46 16 -9 17 -15 7 -51 -10 -37 -17 -44 -63 -63 -28 -12
-48 -24 -45 -28 4 -3 -6 -20 -21 -38 -15 -18 -33 -40 -40 -51 -11 -16 -11 -15
-1 6 6 14 23 37 37 53 35 37 23 34 -56 -12 -37 -21 -78 -42 -92 -46 -14 -4
-35 -13 -47 -21 -27 -17 -28 -15 -8 33 23 53 18 65 -6 13 l-20 -45 -18 50
c-10 28 -27 68 -39 91 -23 45 -90 137 -104 142 -10 4 -11 32 0 32 31 2 267 71
270 80 2 6 7 10 11 8 3 -2 38 -19 76 -37z m200 -9 c-3 -3 -16 5 -28 17 l-22
23 28 -17 c15 -10 25 -20 22 -23z m-1108 6 c-3 -8 -6 -5 -6 6 -1 11 2 17 5 13
3 -3 4 -12 1 -19z m280 -65 c-3 -10 -5 -2 -5 17 0 19 2 27 5 18 2 -10 2 -26 0
-35z m223 27 c0 -5 -5 -10 -11 -10 -5 0 -7 5 -4 10 3 6 8 10 11 10 2 0 4 -4 4
-10z m-215 -97 c22 -23 46 -52 53 -65 8 -13 -7 0 -32 29 -26 29 -68 71 -94 94
-42 38 -43 39 -7 13 22 -16 58 -48 80 -71z m245 67 c0 -5 -5 -10 -11 -10 -5 0
-7 5 -4 10 3 6 8 10 11 10 2 0 4 -4 4 -10z m-73 -16 c-3 -3 -12 -4 -19 -1 -8
3 -5 6 6 6 11 1 17 -2 13 -5z m63 -28 c-5 -13 -6 -27 -2 -32 4 -4 1 -4 -6 0
-7 4 -11 10 -9 14 2 4 7 15 10 25 4 9 9 17 11 17 3 0 1 -11 -4 -24z m-80 -16
c6 -11 8 -20 6 -20 -3 0 -10 9 -16 20 -6 11 -8 20 -6 20 3 0 10 -9 16 -20z
m126 -52 l29 -33 -32 29 c-31 28 -38 36 -30 36 2 0 16 -15 33 -32z m-246 -55
c-1 -11 -40 37 -40 49 0 6 9 -1 20 -15 11 -14 20 -29 20 -34z m750 7 c0 -5 -5
-10 -11 -10 -5 0 -7 5 -4 10 3 6 8 10 11 10 2 0 4 -4 4 -10z m160 -4 c0 -2 -8
-10 -17 -17 -16 -13 -17 -12 -4 4 13 16 21 21 21 13z m-40 -49 c0 -2 -19 -21
-42 -42 l-43 -40 40 43 c36 39 45 47 45 39z m-1233 -59 c-2 -13 -4 -5 -4 17
-1 22 1 32 4 23 2 -10 2 -28 0 -40z m887 -16 c-5 -4 -15 -23 -22 -42 l-11 -35
6 35 c7 42 11 50 26 50 8 0 9 -3 1 -8z m-537 -68 c-3 -3 -12 -4 -19 -1 -8 3
-5 6 6 6 11 1 17 -2 13 -5z m247 -16 c9 -34 5 -57 -4 -28 -8 24 -8 24 -9 -6
-1 -17 -5 -44 -10 -60 -5 -16 -17 -64 -27 -106 -16 -70 -34 -95 -34 -49 0 27
-25 43 -69 45 -22 0 -37 4 -35 8 3 5 -2 8 -11 8 -9 0 -13 5 -9 11 3 6 17 8 30
5 13 -4 24 -3 23 1 -4 24 3 25 14 3 7 -14 22 -26 33 -28 29 -4 48 37 48 106 1
79 45 145 60 90z m-249 -8 c-3 -5 -12 -10 -18 -10 -7 0 -6 4 3 10 19 12 23 12
15 0z m376 -47 c-12 -20 -14 -14 -5 12 4 9 9 14 11 11 3 -2 0 -13 -6 -23z
m358 -25 c-7 -18 -36 -70 -65 -115 -50 -80 -52 -82 -57 -54 -7 34 -43 59 -60
42 -6 -6 -15 -11 -21 -11 -5 0 -1 7 10 16 19 15 18 15 -4 11 -12 -3 -20 -1
-16 4 3 5 0 9 -7 9 -10 0 -10 3 -1 12 8 8 15 8 27 -2 10 -8 15 -9 15 -1 0 6 5
11 10 11 6 0 10 -7 10 -15 0 -8 10 -20 22 -26 19 -10 25 -8 48 18 15 16 30 47
33 69 5 28 14 44 34 56 35 21 39 17 22 -24z m-89 7 c0 -6 -56 -35 -67 -35 -4
1 8 9 27 20 39 22 40 22 40 15z m-464 -22 c-10 -27 -50 -83 -58 -83 -17 0 -7
33 20 66 29 36 48 45 38 17z m84 -70 c5 -18 5 -33 1 -33 -10 0 -30 88 -22 96
3 3 7 -2 9 -13 2 -10 7 -33 12 -50z m76 20 c-8 -15 -15 -25 -16 -21 0 12 23
58 27 54 3 -2 -2 -17 -11 -33z m324 23 c0 -7 -18 -25 -40 -40 -28 -18 -40 -22
-40 -12 0 7 17 25 38 39 45 31 42 30 42 13z m57 -88 c-2 -13 -4 -3 -4 22 0 25
2 35 4 23 2 -13 2 -33 0 -45z m-379 7 c-3 -3 -9 2 -12 12 -6 14 -5 15 5 6 7
-7 10 -15 7 -18z m-93 -15 c12 0 27 6 35 13 12 10 12 9 1 -5 -19 -26 -81 -21
-81 5 0 7 4 7 12 -1 7 -7 21 -12 33 -12z m-155 0 c0 -5 -8 -10 -17 -10 -15 0
-16 2 -3 10 19 12 20 12 20 0z m34 -33 c3 -13 13 -40 21 -61 l16 -37 40 50
c46 58 56 64 34 21 -9 -16 -20 -30 -26 -30 -6 0 -8 -4 -4 -9 3 -6 -2 -14 -12
-19 -14 -8 -15 -13 -5 -24 10 -12 7 -17 -12 -26 -16 -7 -27 -23 -31 -44 -4
-18 -12 -51 -18 -73 l-11 -40 -7 50 c-14 97 -11 136 11 142 11 3 20 9 20 14 0
5 -6 6 -14 3 -13 -5 -26 40 -26 94 0 28 16 21 24 -11z m191 23 c3 -6 -1 -7 -9
-4 -18 7 -21 14 -7 14 6 0 13 -4 16 -10z m260 -63 c6 -45 7 -46 28 -35 20 10
21 10 9 -5 -8 -9 -10 -22 -6 -28 5 -8 1 -11 -12 -7 -15 4 -29 -8 -59 -53 -22
-32 -40 -57 -42 -56 -1 1 3 35 9 75 11 71 12 72 42 73 18 1 23 3 13 6 -14 4
-16 11 -12 41 4 20 9 44 12 52 7 18 8 15 18 -63z m99 57 c3 -8 2 -12 -4 -9 -6
3 -10 10 -10 16 0 14 7 11 14 -7z m-344 -54 c-17 -22 -37 -43 -43 -47 -11 -6
4 15 47 65 33 37 30 25 -4 -18z m430 20 c0 -5 -7 -7 -15 -4 -8 4 -15 8 -15 10
0 2 7 4 15 4 8 0 15 -4 15 -10z m-85 -20 c-3 -5 -16 -15 -28 -21 -21 -10 -21
-9 2 10 25 23 36 27 26 11z m-941 -169 c14 -27 14 -29 -9 -39 -20 -10 -25 -9
-25 3 0 8 5 15 11 15 7 0 9 10 5 25 -8 33 0 32 18 -4z m0 -66 c-4 -8 -8 -15
-10 -15 -2 0 -4 7 -4 15 0 8 4 15 10 15 5 0 7 -7 4 -15z m-17 -72 c-3 -10 -5
-4 -5 12 0 17 2 24 5 18 2 -7 2 -21 0 -30z m58 -141 c-13 -26 -29 -66 -36 -90
-7 -23 -14 -40 -17 -38 -5 6 14 70 40 127 l20 46 -21 39 c-12 21 -21 46 -21
54 0 8 13 -9 30 -38 l29 -53 -24 -47z m616 101 c-12 -20 -14 -14 -5 12 4 9 9
14 11 11 3 -2 0 -13 -6 -23z m-26 -53 c-9 -16 -18 -30 -21 -30 -2 0 2 14 11
30 9 17 18 30 21 30 2 0 -2 -13 -11 -30z m-291 -107 c-13 -110 -35 -257 -39
-262 -21 -21 -15 67 17 247 13 73 30 84 22 15z m-357 -5 c-3 -8 -6 -5 -6 6 -1
11 2 17 5 13 3 -3 4 -12 1 -19z m450 -20 c-3 -8 -6 -5 -6 6 -1 11 2 17 5 13 3
-3 4 -12 1 -19z m-10 -50 c-3 -7 -5 -2 -5 12 0 14 2 19 5 13 2 -7 2 -19 0 -25z
m-10 -70 c-2 -13 -4 -5 -4 17 -1 22 1 32 4 23 2 -10 2 -28 0 -40z m-466 -93
c-5 -77 -15 -134 -26 -160 -9 -22 -19 -34 -22 -27 -3 6 -9 9 -15 6 -13 -8 -4
35 28 136 13 41 24 86 24 100 0 27 11 73 15 68 2 -2 0 -57 -4 -123z m456 18
c-3 -10 -5 -2 -5 17 0 19 2 27 5 18 2 -10 2 -26 0 -35z m-10 -55 c-3 -7 -5 -2
-5 12 0 14 2 19 5 13 2 -7 2 -19 0 -25z m28 -38 c-24 -52 -30 -46 -8 8 9 23
18 40 21 37 3 -3 -3 -23 -13 -45z m-69 -90 c-20 -51 -37 -113 -38 -139 l-1
-46 -4 44 c-3 32 5 69 34 147 21 57 39 99 41 95 2 -5 -13 -50 -32 -101z m25
-3 c-10 -9 -11 -8 -5 6 3 10 9 15 12 12 3 -3 0 -11 -7 -18z m-99 -287 c-6 -41
-12 -38 -12 6 0 19 4 33 8 30 5 -3 7 -19 4 -36z m5 -97 c-3 -10 -5 -2 -5 17 0
19 2 27 5 18 2 -10 2 -26 0 -35z m7 -105 c6 -41 14 -157 20 -313 l5 -120 -14
100 c-7 55 -16 150 -20 210 -3 61 -8 120 -11 133 -2 12 0 22 5 22 6 0 12 -15
15 -32z m-9 -408 c3 -41 4 -73 1 -70 -6 6 -37 249 -35 277 2 26 25 -117 34
-207z m-685 130 c-6 -23 -14 -40 -16 -37 -3 3 0 24 7 46 16 54 24 46 9 -9z
m-17 -245 c-12 -17 -29 -46 -37 -65 -13 -29 -15 -31 -16 -12 0 15 -4 21 -12
16 -7 -4 -8 -3 -4 5 4 6 12 9 17 6 5 -4 9 17 9 48 0 38 8 72 25 109 14 29 26
62 27 73 1 11 4 -18 7 -65 6 -77 4 -88 -16 -115z m744 38 c-3 -10 -5 -2 -5 17
0 19 2 27 5 18 2 -10 2 -26 0 -35z m-208 -317 c18 -19 18 -26 6 -86 -7 -36
-13 -58 -14 -50 -1 8 -10 33 -22 54 -14 27 -22 62 -24 110 l-2 69 18 -38 c11
-21 28 -48 38 -59z m228 -298 c-3 -7 -5 -2 -5 12 0 14 2 19 5 13 2 -7 2 -19 0
-25z m-172 -437 c5 -32 4 -42 -4 -36 -7 4 -18 2 -24 -4 -10 -8 -11 3 -3 56 10
69 17 66 31 -16z m-781 -152 c-7 -14 -21 -32 -31 -39 -15 -12 -16 -12 -5 0 21
24 13 34 -11 12 l-22 -21 3 37 c3 28 11 42 36 57 l31 21 6 -21 c3 -11 0 -32
-7 -46z m76 -8 c19 -16 19 -17 1 -38 l-19 -23 -10 30 c-6 16 -8 47 -4 67 6 36
7 36 10 9 2 -16 12 -36 22 -45z m-214 -46 c-12 -9 -16 -20 -12 -31 4 -9 9 -14
12 -11 18 17 95 -116 99 -172 l4 -36 -23 28 c-12 15 -42 68 -67 118 -43 88
-43 91 -25 105 11 8 22 14 25 14 3 0 -2 -7 -13 -15z m38 -10 c-4 -8 -11 -15
-16 -15 -6 0 -5 6 2 15 7 8 14 15 16 15 2 0 1 -7 -2 -15z m1099 -100 c3 -57 2
-89 -3 -75 -8 24 -14 188 -6 179 2 -2 6 -49 9 -104z m-1026 73 c-4 19 -3 21 9
11 8 -6 14 -23 14 -36 0 -20 -4 -24 -19 -20 -15 3 -18 1 -14 -11 4 -10 2 -13
-5 -8 -14 8 -16 -6 -3 -20 5 -5 12 -20 16 -34 4 -15 -3 -8 -19 18 -14 24 -35
58 -47 75 -18 28 -19 29 -1 10 16 -19 22 -20 31 -9 6 7 9 22 5 32 -4 15 -1 13
17 -6 l22 -25 -6 23z m88 -9 c-5 -13 -3 -19 3 -15 5 3 13 -1 16 -10 3 -8 2
-13 -3 -9 -5 3 -12 -1 -14 -7 -3 -8 -6 -6 -6 5 -1 10 -5 15 -11 12 -13 -8 -13
1 2 25 16 26 21 25 13 -1z m-50 -73 c14 18 15 17 6 -6 -5 -14 -14 -41 -19 -60
l-10 -35 -1 40 c-1 22 -4 51 -6 65 l-6 25 11 -24 c10 -23 11 -24 25 -5z m56
-23 c-24 -46 -60 -92 -61 -78 0 12 68 115 75 115 3 0 -4 -17 -14 -37z m716
-85 c-3 -8 -6 -5 -6 6 -1 11 2 17 5 13 3 -3 4 -12 1 -19z m195 -191 c1 -20 -6
-47 -15 -60 -15 -23 -15 -26 0 -38 23 -19 53 -95 53 -132 0 -55 -14 -61 -38
-19 -12 22 -18 43 -14 47 4 5 2 5 -4 2 -6 -4 -19 2 -29 13 -14 15 -15 23 -6
34 10 11 7 18 -11 31 -20 15 -20 16 -3 10 11 -4 28 -8 38 -10 17 -4 18 -2 4
18 -11 17 -12 29 -5 43 5 11 0 8 -14 -8 l-23 -27 0 45 c0 24 3 44 7 44 5 0 18
11 30 25 26 30 28 28 30 -18z m49 -10 c0 -27 2 -29 9 -12 7 18 8 19 15 2 4 -9
4 -29 1 -43 -7 -26 -8 -26 -20 -8 -15 21 -26 105 -14 98 5 -3 8 -20 9 -37z
m-151 -74 c-14 -9 -28 -21 -32 -27 -4 -6 -10 -8 -13 -4 -7 7 43 48 59 48 6 0
-1 -8 -14 -17z m6 -28 c-20 -30 -20 -39 -3 -32 8 3 20 1 28 -5 11 -8 10 -9 -5
-4 -13 5 -10 -3 13 -29 45 -51 75 -115 62 -128 -6 -6 -12 -8 -12 -4 -1 4 -2
13 -3 20 -1 6 -7 11 -13 10 -6 -1 -19 8 -29 20 -16 18 -16 20 -1 8 14 -11 17
-11 17 0 0 8 -9 20 -21 27 -17 11 -20 11 -13 0 6 -10 5 -11 -7 -1 -17 14 -67
99 -52 90 5 -3 17 7 27 24 9 16 20 29 23 29 3 0 -2 -11 -11 -25z m201 3 c-3
-8 -6 -5 -6 6 -1 11 2 17 5 13 3 -3 4 -12 1 -19z m-31 -13 c-5 -19 -3 -23 8
-19 9 3 14 0 13 -8 -4 -21 -12 -24 -28 -8 -13 11 -14 20 -6 37 14 30 21 29 13
-2z m-3 -120 c-3 -9 -8 -14 -10 -11 -3 3 -2 9 2 15 9 16 15 13 8 -4z"/>
<path d="M4850 7458 c0 -4 9 -8 20 -8 11 0 20 4 20 8 0 4 -9 8 -20 8 -11 0
-20 -4 -20 -8z"/>
<path d="M5048 7373 c7 -3 16 -2 19 1 4 3 -2 6 -13 5 -11 0 -14 -3 -6 -6z"/>
<path d="M4938 7313 c7 -3 16 -2 19 1 4 3 -2 6 -13 5 -11 0 -14 -3 -6 -6z"/>
<path d="M4371 6960 c0 -8 4 -22 9 -30 12 -18 12 -2 0 25 -6 13 -9 15 -9 5z"/>
<path d="M4104 7136 c11 -9 24 -16 30 -16 12 0 7 5 -24 19 -24 11 -24 11 -6
-3z"/>
<path d="M4621 6634 c0 -11 3 -14 6 -6 3 7 2 16 -1 19 -3 4 -6 -2 -5 -13z"/>
<path d="M4446 6470 c-5 -30 -1 -47 14 -72 11 -18 20 -26 20 -17 0 9 -3 19 -7
23 -5 4 -9 12 -9 17 -1 5 -3 12 -4 17 -1 4 -1 22 0 40 2 45 -6 40 -14 -8z"/>
<path d="M4465 6320 c-3 -5 -1 -10 4 -10 6 0 11 5 11 10 0 6 -2 10 -4 10 -3 0
-8 -4 -11 -10z"/>
<path d="M3721 5204 c0 -11 3 -14 6 -6 3 7 2 16 -1 19 -3 4 -6 -2 -5 -13z"/>
<path d="M4258 4744 c-9 -8 3 -44 13 -38 11 7 12 44 1 44 -5 0 -11 -3 -14 -6z"/>
<path d="M4561 4544 c0 -11 3 -14 6 -6 3 7 2 16 -1 19 -3 4 -6 -2 -5 -13z"/>
<path d="M4551 4504 c0 -11 3 -14 6 -6 3 7 2 16 -1 19 -3 4 -6 -2 -5 -13z"/>
<path d="M4536 4454 c-4 -14 -5 -28 -3 -31 3 -2 8 8 11 23 4 14 5 28 3 31 -3
2 -8 -8 -11 -23z"/>
<path d="M4618 3887 c7 -8 8 -18 4 -22 -4 -5 -1 -5 6 -1 17 10 15 23 -4 30
-13 5 -14 4 -6 -7z"/>
<path d="M3193 908 c-7 -8 -8 -19 -3 -28 8 -12 10 -12 15 2 10 26 2 43 -12 26z"/>
<path d="M3273 835 c0 -8 4 -12 9 -9 4 3 8 9 8 15 0 5 -4 9 -8 9 -5 0 -9 -7
-9 -15z"/>
<path d="M3120 673 c1 -11 50 -90 50 -80 0 11 -39 87 -45 87 -3 0 -5 -3 -5 -7z"/>
<path d="M4168 404 c-5 -4 -8 -16 -8 -28 0 -14 3 -17 11 -9 6 6 9 19 7 28 -1
9 -6 13 -10 9z"/>
<path d="M4184 206 c1 -12 10 -34 18 -51 l16 -30 -3 45 c-3 58 -3 57 -19 57
-9 0 -13 -9 -12 -21z"/>
<path d="M4783 8828 c-15 -20 -25 -38 -20 -38 3 0 12 11 21 25 17 26 16 35 -1
13z"/>
<path d="M5221 8812 c-2 -49 18 -118 40 -138 11 -10 19 -12 19 -6 0 7 -4 12
-9 12 -13 0 -32 52 -41 112 -5 39 -8 44 -9 20z"/>
<path d="M4115 8820 c-3 -6 1 -7 9 -4 18 7 21 14 7 14 -6 0 -13 -4 -16 -10z"/>
<path d="M4195 8797 c-23 -13 -46 -22 -51 -20 -6 2 -17 -4 -25 -14 -11 -15
-11 -16 1 -5 24 21 34 13 14 -10 l-19 -23 25 22 c14 12 45 33 70 47 25 14 41
26 35 26 -5 0 -28 -11 -50 -23z"/>
<path d="M4328 8813 c7 -3 16 -2 19 1 4 3 -2 6 -13 5 -11 0 -14 -3 -6 -6z"/>
<path d="M3147 8758 c-20 -28 -37 -58 -37 -67 1 -9 7 -2 14 14 7 17 25 45 41
63 15 18 26 35 24 37 -2 2 -21 -19 -42 -47z"/>
<path d="M3700 8760 c0 -5 5 -10 10 -10 6 0 10 5 10 10 0 6 -4 10 -10 10 -5 0
-10 -4 -10 -10z"/>
<path d="M2991 8744 c0 -11 3 -14 6 -6 3 7 2 16 -1 19 -3 4 -6 -2 -5 -13z"/>
<path d="M4608 8733 c6 -2 18 -2 25 0 6 3 1 5 -13 5 -14 0 -19 -2 -12 -5z"/>
<path d="M4861 8723 c-1 -6 -4 -20 -7 -30 -5 -17 -5 -17 6 0 6 10 9 23 6 30
-3 9 -5 9 -5 0z"/>
<path d="M3312 8695 c0 -16 4 -43 8 -60 11 -42 11 -1 1 50 -7 34 -9 35 -9 10z"/>
<path d="M4045 8658 l-40 -43 43 40 c23 21 42 40 42 42 0 8 -9 0 -45 -39z"/>
<path d="M5001 8695 c0 -5 8 -26 19 -45 11 -19 19 -30 19 -25 0 6 -8 26 -19
45 -11 19 -19 31 -19 25z"/>
<path d="M3141 8653 c-1 -12 9 -32 22 -45 12 -13 16 -16 9 -7 -7 9 -17 30 -22
45 -7 24 -8 25 -9 7z"/>
<path d="M5160 8635 c7 -9 43 -34 80 -56 56 -33 71 -48 90 -89 22 -46 22 -51
7 -81 -11 -24 -12 -37 -4 -49 8 -14 -6 -41 -77 -145 -49 -70 -84 -125 -78
-121 5 3 38 47 72 98 35 51 79 111 99 132 20 21 30 36 23 32 -7 -4 -19 -2 -27
4 -12 10 -12 17 3 46 15 33 15 36 -11 90 -18 36 -38 61 -59 72 -17 9 -53 32
-81 50 -27 18 -44 26 -37 17z"/>
<path d="M5270 8635 c0 -9 -4 -14 -9 -10 -5 3 -13 0 -17 -6 -4 -7 -3 -9 3 -6
6 4 16 0 23 -8 19 -22 28 -18 22 10 -5 29 -22 44 -22 20z"/>
<path d="M3771 8605 c-56 -18 -121 -79 -121 -116 0 -20 -10 -33 -40 -53 -22
-14 -42 -36 -45 -49 -4 -12 -17 -30 -31 -40 -24 -18 -24 -18 -24 5 0 13 -5 30
-10 38 -8 11 -9 7 -4 -15 14 -69 14 -69 35 -46 11 12 24 21 28 21 5 0 11 12
15 28 3 16 21 38 46 54 31 22 40 34 40 57 0 21 10 38 35 60 46 40 60 39 35 -1
-11 -18 -20 -37 -20 -43 1 -5 8 2 16 18 8 15 19 27 24 27 13 0 13 -4 -5 -47
-20 -46 -19 -50 5 -28 11 10 17 21 14 26 -7 12 15 51 25 44 5 -3 12 2 15 11 9
22 9 22 -21 27 -24 3 -22 5 15 12 23 4 42 11 42 16 0 12 -16 10 -69 -6z"/>
<path d="M2945 8603 c-68 -14 -65 -12 -55 -39 17 -44 9 -51 -11 -9 -10 22 -16
29 -13 15 9 -35 33 -78 34 -60 0 13 2 13 11 0 9 -12 10 -11 4 5 -3 11 -9 32
-12 48 -5 25 -3 27 23 26 27 0 28 -1 8 -11 -20 -9 -20 -12 -8 -46 7 -21 13
-45 14 -54 0 -9 5 -20 10 -23 7 -4 8 3 4 22 -7 27 -6 27 12 12 38 -32 42 -28
19 16 -17 31 -21 46 -13 51 7 4 13 3 15 -3 2 -6 11 -19 19 -29 9 -10 6 -1 -6
20 -11 21 -19 45 -16 52 5 14 -2 15 -39 7z"/>
<path d="M3028 8603 c7 -3 16 -2 19 1 4 3 -2 6 -13 5 -11 0 -14 -3 -6 -6z"/>
<path d="M3925 8528 c-44 -45 -66 -72 -49 -60 27 19 143 143 132 142 -1 -1
-39 -37 -83 -82z"/>
<path d="M5666 8590 c4 -14 15 -43 25 -65 11 -22 16 -29 13 -15 -4 14 -15 43
-25 65 -11 22 -16 29 -13 15z"/>
<path d="M3070 8596 c0 -2 8 -10 18 -17 15 -13 16 -12 3 4 -13 16 -21 21 -21
13z"/>
<path d="M3975 8530 c-20 -27 -55 -66 -78 -85 -23 -20 -33 -32 -22 -27 11 6
29 19 39 31 10 11 22 19 25 17 4 -3 23 22 43 55 21 32 35 59 33 59 -2 0 -20
-22 -40 -50z"/>
<path d="M3182 8530 c0 -14 2 -19 5 -12 2 6 2 18 0 25 -3 6 -5 1 -5 -13z"/>
<path d="M3781 8514 c0 -11 3 -14 6 -6 3 7 2 16 -1 19 -3 4 -6 -2 -5 -13z"/>
<path d="M3030 8480 c6 -11 8 -26 4 -33 -4 -6 -4 -9 1 -5 8 8 37 -25 49 -56 3
-10 9 -16 12 -13 6 5 -64 127 -73 127 -2 0 1 -9 7 -20z"/>
<path d="M2917 8460 c9 -16 33 -47 53 -68 19 -21 27 -29 18 -17 -30 36 -20 41
15 8 32 -30 74 -52 62 -33 -3 6 -12 10 -19 10 -7 0 -25 13 -41 30 -15 16 -33
28 -39 27 -6 -1 -18 12 -26 30 -8 18 -21 35 -28 38 -9 3 -7 -5 5 -25z"/>
<path d="M3676 8445 c-13 -25 -28 -55 -32 -68 -6 -19 -5 -20 10 -8 9 8 14 16
12 19 -3 2 6 26 20 53 31 62 24 64 -10 4z"/>
<path d="M3806 8465 c-9 -26 -7 -32 5 -12 6 10 9 21 6 23 -2 3 -7 -2 -11 -11z"/>
<path d="M5712 8470 c0 -8 4 -26 8 -40 6 -20 8 -21 8 -5 0 11 -3 29 -8 40 -5
12 -8 14 -8 5z"/>
<path d="M4732 8430 c0 -14 2 -19 5 -12 2 6 2 18 0 25 -3 6 -5 1 -5 -13z"/>
<path d="M4291 8375 c-13 -30 -40 -82 -62 -115 -37 -58 -54 -95 -25 -55 12 17
19 18 55 9 22 -6 38 -8 36 -3 -3 4 -19 10 -35 14 -17 4 -30 9 -30 11 0 3 15
29 34 59 30 47 61 124 53 132 -2 1 -14 -22 -26 -52z"/>
<path d="M4880 8416 c0 -2 7 -9 15 -16 13 -11 14 -10 9 4 -5 14 -24 23 -24 12z"/>
<path d="M3835 8400 c-3 -5 -1 -10 4 -10 6 0 11 5 11 10 0 6 -2 10 -4 10 -3 0
-8 -4 -11 -10z"/>
<path d="M4607 8352 c-7 -66 -36 -141 -74 -190 -34 -45 -38 -35 -8 21 13 26
23 47 22 47 -2 0 -23 -21 -47 -47 -25 -26 -33 -37 -17 -24 32 29 35 20 6 -20
-33 -46 -1 -35 47 16 32 34 48 65 66 121 22 72 23 74 31 43 4 -17 10 -30 11
-28 6 7 -18 119 -25 119 -3 0 -9 -26 -12 -58z"/>
<path d="M4742 8317 c-2 -100 -11 -107 -50 -41 -34 57 -21 2 15 -62 l27 -48 8
39 c5 22 7 76 5 120 l-3 80 -2 -88z"/>
<path d="M4983 8331 c18 -38 33 -68 36 -66 4 5 -56 135 -63 135 -2 0 10 -31
27 -69z"/>
<path d="M5721 8379 c-1 -9 -26 -52 -58 -95 -211 -295 -290 -408 -361 -524
-34 -54 8 0 58 75 62 93 220 319 295 420 62 84 78 112 71 128 -2 7 -5 5 -5 -4z"/>
<path d="M3828 8357 c-3 -19 -2 -25 4 -19 6 6 8 18 6 28 -3 14 -5 12 -10 -9z"/>
<path d="M3665 8360 c-3 -6 1 -7 9 -4 18 7 21 14 7 14 -6 0 -13 -4 -16 -10z"/>
<path d="M4917 8335 c9 -19 18 -33 21 -31 4 5 -26 66 -33 66 -3 0 3 -16 12
-35z"/>
<path d="M3142 8330 c0 -19 2 -27 5 -17 2 9 2 25 0 35 -3 9 -5 1 -5 -18z"/>
<path d="M3698 8343 c7 -3 16 -2 19 1 4 3 -2 6 -13 5 -11 0 -14 -3 -6 -6z"/>
<path d="M3011 8336 c2 -2 15 -9 29 -15 24 -11 24 -11 6 3 -16 13 -49 24 -35
12z"/>
<path d="M3630 8336 c0 -2 7 -7 16 -10 8 -3 12 -2 9 4 -6 10 -25 14 -25 6z"/>
<path d="M2990 8324 c0 -16 104 -110 145 -132 18 -9 61 -53 96 -97 34 -44 115
-145 178 -224 64 -79 124 -153 133 -166 15 -19 16 -28 7 -54 -6 -18 -9 -34 -7
-37 3 -2 10 14 17 36 l12 40 -98 118 c-191 231 -314 393 -328 430 -7 20 -14
29 -14 19 -1 -10 4 -27 9 -38 7 -11 7 -19 1 -19 -11 0 -106 74 -116 90 -9 14
8 13 25 -2 12 -11 12 -10 0 5 -7 10 -19 16 -26 13 -8 -3 -18 3 -23 12 -6 9
-11 12 -11 6z"/>
<path d="M3081 8314 c10 -13 10 -17 -2 -25 -10 -6 -6 -9 15 -9 l29 0 -23 25
c-26 27 -40 34 -19 9z"/>
<path d="M3775 8304 c-18 -16 -22 -22 -9 -15 18 9 53 42 43 41 -2 -1 -17 -12
-34 -26z"/>
<path d="M4151 8304 c0 -11 3 -14 6 -6 3 7 2 16 -1 19 -3 4 -6 -2 -5 -13z"/>
<path d="M4387 8282 c-26 -27 -36 -49 -17 -37 10 6 53 65 48 65 -3 0 -16 -13
-31 -28z"/>
<path d="M3520 8275 c0 -5 5 -17 10 -25 5 -8 10 -10 10 -5 0 6 -5 17 -10 25
-5 8 -10 11 -10 5z"/>
<path d="M3705 8270 c-3 -5 -2 -10 4 -10 5 0 13 5 16 10 3 6 2 10 -4 10 -5 0
-13 -4 -16 -10z"/>
<path d="M4650 8275 c0 -5 5 -17 10 -25 5 -8 10 -10 10 -5 0 6 -5 17 -10 25
-5 8 -10 11 -10 5z"/>
<path d="M3490 8264 c0 -7 82 -114 87 -114 3 0 0 7 -8 16 -10 13 -10 17 2 25
11 7 9 9 -8 9 -13 0 -23 4 -23 10 0 5 -11 20 -25 34 -14 14 -25 23 -25 20z"/>
<path d="M3581 8257 c2 -1 13 -9 24 -17 19 -14 19 -14 6 3 -7 9 -18 17 -24 17
-6 0 -8 -1 -6 -3z"/>
<path d="M3658 8253 c6 -2 18 -2 25 0 6 3 1 5 -13 5 -14 0 -19 -2 -12 -5z"/>
<path d="M3900 8235 c-14 -8 -34 -15 -45 -15 -18 -1 -18 -2 3 -11 18 -7 30 -4
47 9 14 9 25 20 25 25 0 9 0 9 -30 -8z"/>
<path d="M4142 8188 l-2 -67 32 6 c23 5 29 3 24 -6 -5 -7 -14 -10 -22 -7 -20
8 -26 -9 -14 -40 9 -23 12 -25 23 -11 10 13 30 15 69 8 4 0 4 -8 1 -18 -4 -11
-3 -14 5 -9 7 4 12 23 12 43 0 33 2 35 25 29 14 -4 25 -3 26 1 0 5 2 16 4 26
2 9 -1 15 -6 11 -5 -3 -7 -9 -4 -13 2 -5 -6 -8 -20 -8 -14 0 -22 3 -20 8 3 4
-18 15 -47 24 -49 14 -53 14 -63 -2 -8 -15 -11 -7 -16 37 l-6 55 -1 -67z"/>
<path d="M4342 8225 c0 -16 2 -22 5 -12 2 9 2 23 0 30 -3 6 -5 -1 -5 -18z"/>
<path d="M5021 8234 c0 -11 3 -14 6 -6 3 7 2 16 -1 19 -3 4 -6 -2 -5 -13z"/>
<path d="M3625 8220 c-3 -6 1 -7 9 -4 18 7 21 14 7 14 -6 0 -13 -4 -16 -10z"/>
<path d="M4685 8200 c9 -16 18 -30 21 -30 2 0 -2 14 -11 30 -9 17 -18 30 -21
30 -2 0 2 -13 11 -30z"/>
<path d="M4944 8204 c4 -16 12 -30 17 -32 14 -5 10 -152 -6 -197 -16 -46 -11
-62 6 -19 7 16 15 74 19 129 4 55 8 94 8 88 1 -7 7 -13 14 -13 6 0 3 8 -7 20
-10 11 -22 17 -26 14 -5 -3 -9 2 -9 10 0 8 -5 18 -11 22 -9 5 -10 -1 -5 -22z"/>
<path d="M4598 8213 c6 -2 18 -2 25 0 6 3 1 5 -13 5 -14 0 -19 -2 -12 -5z"/>
<path d="M5028 8186 c-3 -13 -2 -43 2 -67 6 -39 7 -37 7 24 0 72 -2 81 -9 43z"/>
<path d="M4052 8180 c0 -14 2 -19 5 -12 2 6 2 18 0 25 -3 6 -5 1 -5 -13z"/>
<path d="M4315 8186 c-23 -25 -26 -40 -4 -19 12 12 21 24 18 27 -2 2 -9 -1
-14 -8z"/>
<path d="M4350 8181 c0 -5 5 -13 10 -16 6 -3 10 -2 10 4 0 5 -4 13 -10 16 -5
3 -10 2 -10 -4z"/>
<path d="M4388 8163 c-24 -29 -28 -40 -14 -40 8 0 12 6 9 14 -3 7 -1 13 5 13
5 0 12 7 16 15 7 20 2 19 -16 -2z"/>
<path d="M4645 8170 c-11 -5 -32 -11 -47 -14 -15 -4 -40 -18 -55 -32 -25 -22
-25 -24 -5 -14 27 13 45 3 20 -11 -27 -15 -11 -39 20 -30 33 10 54 4 46 -12
-3 -7 2 -3 10 7 9 11 16 30 16 43 0 16 4 21 15 17 19 -8 19 -27 0 -67 l-16
-32 20 25 c11 14 27 33 35 42 9 10 18 29 22 43 6 24 4 25 -27 23 -23 -2 -33 1
-31 10 1 6 1 12 0 11 -2 0 -12 -4 -23 -9z m75 -30 c0 -5 -4 -10 -10 -10 -5 0
-10 5 -10 10 0 6 5 10 10 10 6 0 10 -4 10 -10z"/>
<path d="M4081 8122 c-1 -7 4 -34 10 -59 10 -36 14 -42 21 -29 6 11 6 22 0 29
-5 7 -14 26 -20 42 -6 17 -11 24 -11 17z"/>
<path d="M4951 8104 c0 -11 3 -14 6 -6 3 7 2 16 -1 19 -3 4 -6 -2 -5 -13z"/>
<path d="M4691 8053 c-10 -26 -10 -27 4 -9 8 11 15 23 15 28 0 15 -7 8 -19
-19z"/>
<path d="M5119 8028 c-24 -29 -36 -47 -26 -39 20 16 81 91 74 91 -2 0 -24 -24
-48 -52z"/>
<path d="M4120 8034 c0 -13 85 -94 97 -94 5 0 -5 12 -22 26 -16 14 -40 38 -52
52 -13 15 -23 22 -23 16z"/>
<path d="M4135 7960 c32 -57 95 -110 128 -110 7 0 -3 8 -21 17 -18 9 -51 37
-74 62 -23 25 -37 39 -33 31z"/>
<path d="M5053 7947 c-10 -13 -25 -26 -33 -30 -13 -5 -13 -6 1 -6 8 -1 25 13
37 29 26 35 22 41 -5 7z"/>
<path d="M4970 7906 c0 -2 7 -7 16 -10 8 -3 12 -2 9 4 -6 10 -25 14 -25 6z"/>
<path d="M4197 7819 c11 -12 27 -19 35 -17 9 2 1 10 -20 20 l-36 17 21 -20z"/>
<path d="M4880 7819 c0 -5 -4 -7 -10 -4 -5 3 -18 1 -27 -5 -15 -9 -14 -10 6
-4 l25 6 -25 -30 c-25 -31 -61 -40 -51 -12 3 8 10 18 16 22 7 5 5 8 -4 8 -9 0
-21 -13 -27 -30 -11 -29 -10 -30 15 -30 19 1 38 14 65 45 21 25 34 45 28 45
-6 0 -11 -5 -11 -11z"/>
<path d="M5065 7810 c3 -5 8 -10 11 -10 2 0 4 5 4 10 0 6 -5 10 -11 10 -5 0
-7 -4 -4 -10z"/>
<path d="M3660 7747 c0 -2 6 -10 14 -16 11 -9 16 -9 22 1 4 7 4 10 -1 6 -4 -4
-14 -3 -22 3 -7 6 -13 9 -13 6z"/>
<path d="M4262 7713 c28 -42 106 -95 136 -91 24 3 21 6 -33 32 -33 16 -73 41
-89 55 -26 23 -28 23 -14 4z"/>
<path d="M5276 7718 c-11 -35 -13 -58 -6 -53 4 3 10 18 12 35 5 30 1 41 -6 18z"/>
<path d="M5039 7694 c-13 -14 -37 -32 -54 -40 -25 -11 -26 -13 -5 -8 22 5 104
74 89 74 -3 0 -16 -12 -30 -26z"/>
<path d="M3110 7659 c-53 -29 -100 -66 -100 -79 0 -3 30 -11 68 -18 72 -12
164 -46 203 -75 13 -10 18 -15 11 -12 -18 9 -52 -70 -52 -122 0 -41 0 -42 55
-62 30 -11 63 -18 72 -15 16 5 16 4 -1 -10 -11 -9 -25 -16 -32 -16 -6 0 -17
-7 -24 -15 -23 -27 -155 -97 -183 -97 -22 1 -38 -12 -82 -65 -48 -59 -135
-207 -135 -230 0 -4 22 31 48 79 51 95 135 208 154 208 6 0 0 -13 -15 -28 -28
-29 -37 -53 -13 -32 13 10 13 8 3 -14 -9 -19 -13 -22 -17 -10 -5 14 -7 14 -19
0 -7 -8 -9 -21 -5 -27 4 -8 3 -9 -4 -5 -14 9 -46 -39 -36 -55 4 -8 3 -9 -4 -5
-21 13 -86 -140 -125 -295 l-15 -57 36 24 c42 29 62 30 88 6 11 -11 27 -18 36
-16 11 1 15 -3 11 -14 -4 -9 -2 -13 4 -9 16 10 4 -78 -19 -139 -31 -84 -89
-164 -194 -266 -113 -110 -176 -164 -154 -132 8 11 51 53 95 93 85 76 167 168
191 214 23 43 10 32 -25 -22 -17 -27 -88 -104 -158 -171 -120 -114 -177 -176
-142 -154 8 5 17 9 20 9 16 0 219 128 361 227 282 197 417 335 509 519 33 65
79 218 79 260 0 15 6 34 13 41 9 8 12 28 10 58 -3 25 3 72 12 105 24 87 24 86
-24 118 -24 17 -49 43 -55 59 -6 15 -14 28 -19 28 -4 0 -38 29 -74 65 -78 77
-152 128 -233 161 -33 13 -61 24 -62 24 -2 0 -28 -14 -58 -31z m336 -266 l27
-17 -54 -18 c-30 -10 -59 -16 -66 -13 -18 6 -16 36 2 62 17 24 38 21 91 -14z
m-171 -65 c6 -4 2 -8 -7 -8 -10 0 -18 7 -18 17 0 9 3 12 8 7 4 -5 12 -12 17
-16z m135 -81 c0 -2 -15 -16 -32 -33 l-33 -29 29 33 c28 30 36 37 36 29z
m-127 -67 c-6 -23 7 -26 26 -7 7 6 1 -6 -14 -28 -31 -47 -42 -59 -26 -27 14
26 6 46 -15 38 -22 -8 -16 10 9 27 12 9 23 16 24 16 0 1 -1 -8 -4 -19z m40
-52 c-30 -62 -38 -73 -28 -38 7 26 44 90 50 90 2 0 -8 -24 -22 -52z m87 -71
c0 -2 -15 -16 -32 -33 l-33 -29 29 33 c28 30 36 37 36 29z"/>
<path d="M3716 7658 c3 -5 10 -6 15 -3 13 9 11 12 -6 12 -8 0 -12 -4 -9 -9z"/>
<path d="M3531 7584 c0 -11 3 -14 6 -6 3 7 2 16 -1 19 -3 4 -6 -2 -5 -13z"/>
<path d="M3646 7507 c3 -10 9 -15 12 -12 3 3 0 11 -7 18 -10 9 -11 8 -5 -6z"/>
<path d="M3695 7460 c10 -11 20 -20 23 -20 3 0 -3 9 -13 20 -10 11 -20 20 -23
20 -3 0 3 -9 13 -20z"/>
<path d="M5237 7425 c-4 -8 -3 -16 1 -19 4 -3 9 4 9 15 2 23 -3 25 -10 4z"/>
<path d="M2846 7314 c-26 -8 -46 -17 -44 -20 3 -2 20 1 38 7 21 8 74 10 149 7
120 -5 105 5 -22 16 -51 4 -86 1 -121 -10z"/>
<path d="M3125 7290 c15 -6 5 -9 -35 -10 l-55 -1 30 -16 c17 -9 49 -33 73 -55
l43 -39 60 32 c62 33 64 49 7 49 -16 0 -28 4 -28 10 0 5 -7 6 -17 3 -11 -5
-14 -3 -8 6 6 10 2 11 -15 6 -14 -4 -20 -3 -16 3 3 5 -4 12 -17 16 -32 8 -45
6 -22 -4z"/>
<path d="M2795 7270 c-22 -4 -43 -6 -48 -3 -4 2 -39 -17 -78 -42 -38 -26 -69
-48 -67 -49 13 -6 287 7 283 13 -2 5 3 8 12 7 10 0 18 6 18 14 1 8 6 14 13 13
6 -2 27 8 47 21 27 19 31 25 19 30 -21 8 -150 6 -199 -4z"/>
<path d="M5030 7236 c0 -2 11 -6 25 -8 13 -3 22 -1 19 3 -5 9 -44 13 -44 5z"/>
<path d="M5150 7196 c0 -2 7 -7 16 -10 8 -3 12 -2 9 4 -6 10 -25 14 -25 6z"/>
<path d="M3973 7168 c-6 -9 -3 -34 11 -78 11 -36 22 -57 24 -48 3 16 5 16 19
3 11 -12 12 -19 3 -29 -9 -12 -7 -13 9 -9 19 5 19 7 -10 62 -16 31 -31 67 -34
80 -6 31 -10 34 -22 19z"/>
<path d="M5190 7177 c0 -2 19 -19 43 -37 23 -19 36 -26 28 -17 -15 19 -71 61
-71 54z"/>
<path d="M5526 7107 c3 -10 9 -15 12 -12 3 3 0 11 -7 18 -10 9 -11 8 -5 -6z"/>
<path d="M5290 7065 c0 -5 5 -17 10 -25 5 -8 10 -10 10 -5 0 6 -5 17 -10 25
-5 8 -10 11 -10 5z"/>
<path d="M5750 6992 c6 -13 14 -21 18 -18 3 4 -2 14 -12 24 -18 16 -18 16 -6
-6z"/>
<path d="M4035 6941 c-3 -5 -2 -12 3 -15 5 -3 9 1 9 9 0 17 -3 19 -12 6z"/>
<path d="M5156 6833 c-6 -14 -5 -15 5 -6 7 7 10 15 7 18 -3 3 -9 -2 -12 -12z"/>
<path d="M2881 6769 c-12 -35 -21 -70 -20 -78 0 -9 11 18 24 59 29 90 26 106
-4 19z"/>
<path d="M3786 6718 c10 -14 21 -24 23 -22 3 3 -6 15 -18 27 l-24 22 19 -27z"/>
<path d="M3840 6701 c0 -40 -18 -84 -30 -76 -7 4 -6 13 1 26 13 26 5 36 -16
19 -14 -11 -17 -10 -22 9 -3 12 -12 20 -22 19 -10 -2 -15 3 -13 12 2 8 0 11
-4 7 -14 -14 -13 -38 2 -44 10 -4 11 -10 3 -24 -6 -13 -6 -19 0 -19 6 0 8 -7
4 -16 -5 -13 -2 -15 17 -9 15 5 20 4 16 -4 -14 -22 16 -10 45 18 23 23 29 39
29 70 0 23 -2 41 -5 41 -3 0 -5 -13 -5 -29z m-42 -43 c10 14 10 12 1 -7 -11
-24 -12 -24 -27 -5 -14 18 -14 18 -9 -3 3 -13 2 -25 -2 -27 -4 -3 -8 13 -8 36
l-1 40 17 -25 c15 -24 18 -25 29 -9z"/>
<path d="M2852 6650 c0 -14 2 -19 5 -12 2 6 2 18 0 25 -3 6 -5 1 -5 -13z"/>
<path d="M2842 6595 c0 -16 2 -22 5 -12 2 9 2 23 0 30 -3 6 -5 -1 -5 -18z"/>
<path d="M3013 6555 c0 -27 2 -38 4 -22 2 15 2 37 0 50 -2 12 -4 0 -4 -28z"/>
<path d="M3853 6558 c-6 -12 -14 -47 -18 -76 -3 -29 -8 -60 -11 -70 -3 -9 6 6
20 35 13 28 27 62 30 75 4 16 2 14 -9 -7 l-14 -30 -1 32 c0 17 5 33 12 35 6 2
9 10 7 17 -3 8 -9 4 -16 -11z"/>
<path d="M3001 6484 c0 -11 3 -14 6 -6 3 7 2 16 -1 19 -3 4 -6 -2 -5 -13z"/>
<path d="M2976 6413 c-6 -14 -5 -15 5 -6 7 7 10 15 7 18 -3 3 -9 -2 -12 -12z"/>
<path d="M4321 6390 c0 -3 6 -27 14 -55 8 -30 14 -40 14 -25 0 20 -26 97 -28
80z"/>
<path d="M4352 6249 c-10 -16 -10 -24 -1 -35 15 -18 39 -1 34 24 -2 9 -4 20
-4 25 -2 14 -16 7 -29 -14z"/>
<path d="M4269 6183 c-29 -43 -85 -118 -124 -168 -40 -49 -72 -98 -72 -107 0
-9 4 -15 8 -12 5 2 6 11 3 18 -3 8 14 28 43 49 48 35 203 189 203 201 0 3 -38
-33 -85 -81 -93 -96 -123 -107 -50 -18 25 31 58 76 72 99 14 22 35 51 46 63
11 13 18 25 15 28 -3 3 -29 -29 -59 -72z"/>
<path d="M5131 6244 c0 -11 3 -14 6 -6 3 7 2 16 -1 19 -3 4 -6 -2 -5 -13z"/>
<path d="M5295 6170 c-3 -6 1 -7 9 -4 18 7 21 14 7 14 -6 0 -13 -4 -16 -10z"/>
<path d="M3626 5993 c4 -16 11 -36 15 -45 5 -9 6 -18 1 -21 -4 -2 -1 -2 6 0 7
1 10 -2 7 -8 -17 -26 -35 6 -36 64 0 23 -4 22 -23 -8 -15 -23 -15 -28 -1 -47
20 -29 19 -37 -4 -31 -12 3 -32 -8 -57 -29 l-38 -33 38 55 38 55 -27 3 c-15 2
-29 1 -32 -2 -6 -6 -55 -166 -56 -183 0 -7 -4 -13 -9 -13 -4 0 -8 -5 -8 -10 0
-6 45 20 100 57 76 50 99 70 95 83 -4 13 2 19 25 23 l30 6 -26 26 c-20 20 -25
34 -22 56 3 20 0 29 -9 29 -10 0 -12 -8 -7 -27z m-19 -45 c-3 -8 -6 -5 -6 6
-1 11 2 17 5 13 3 -3 4 -12 1 -19z m-48 -121 c-2 -2 -20 -14 -39 -28 -45 -33
-60 -41 -60 -35 0 9 93 76 98 71 3 -3 3 -6 1 -8z"/>
<path d="M3521 5993 c-1 -19 4 -23 31 -23 34 0 35 6 3 12 -11 1 -23 10 -27 18
-5 11 -7 9 -7 -7z"/>
<path d="M3087 5846 c-3 -8 2 -20 11 -27 14 -11 15 -11 5 0 -6 7 -9 20 -6 27
3 8 3 14 0 14 -3 0 -7 -6 -10 -14z"/>
<path d="M6998 5423 c7 -3 16 -2 19 1 4 3 -2 6 -13 5 -11 0 -14 -3 -6 -6z"/>
<path d="M7191 5261 c20 -9 44 -23 53 -30 11 -9 16 -10 16 -2 0 6 -21 21 -46
31 -56 24 -73 25 -23 1z"/>
<path d="M3629 5148 c-1 -5 -2 -11 -3 -15 -1 -5 -5 -14 -10 -22 -6 -9 -5 -12
1 -8 12 8 83 -39 83 -55 0 -6 3 -8 6 -5 4 4 1 13 -5 21 -8 10 -9 16 -1 21 6 3
8 11 4 16 -4 6 -11 6 -19 -1 -15 -12 -39 -4 -30 9 2 5 -2 17 -10 27 -8 10 -15
16 -16 12z"/>
<path d="M5202 4870 c0 -19 2 -27 5 -17 2 9 2 25 0 35 -3 9 -5 1 -5 -18z"/>
<path d="M5191 4794 c0 -11 3 -14 6 -6 3 7 2 16 -1 19 -3 4 -6 -2 -5 -13z"/>
<path d="M5168 4725 c-3 -11 -9 -29 -13 -40 -3 -11 1 -7 10 8 9 16 15 33 12
40 -2 6 -6 3 -9 -8z"/>
<path d="M4910 4713 c0 -5 10 -18 23 -29 l22 -19 -20 25 c-11 14 -21 27 -22
29 -2 2 -3 0 -3 -6z"/>
<path d="M4965 4660 c3 -5 8 -10 11 -10 2 0 4 5 4 10 0 6 -5 10 -11 10 -5 0
-7 -4 -4 -10z"/>
<path d="M3458 4523 c7 -3 16 -2 19 1 4 3 -2 6 -13 5 -11 0 -14 -3 -6 -6z"/>
<path d="M3418 4513 c7 -3 16 -2 19 1 4 3 -2 6 -13 5 -11 0 -14 -3 -6 -6z"/>
<path d="M3378 4503 c7 -3 16 -2 19 1 4 3 -2 6 -13 5 -11 0 -14 -3 -6 -6z"/>
<path d="M3338 4493 c7 -3 16 -2 19 1 4 3 -2 6 -13 5 -11 0 -14 -3 -6 -6z"/>
<path d="M3225 4472 c-33 -8 -55 -17 -50 -18 6 -2 42 5 80 15 39 11 61 19 50
19 -11 0 -47 -7 -80 -16z"/>
<path d="M3138 4443 c7 -3 16 -2 19 1 4 3 -2 6 -13 5 -11 0 -14 -3 -6 -6z"/>
<path d="M3030 4419 c-36 -10 -49 -16 -29 -14 41 6 131 33 109 33 -8 0 -44 -8
-80 -19z"/>
<path d="M2855 4380 c-38 -10 -61 -18 -50 -19 11 0 52 8 90 18 39 11 61 19 50
19 -11 0 -51 -8 -90 -18z"/>
<path d="M3601 2888 c-41 -73 -105 -227 -98 -234 2 -2 18 34 36 80 18 47 51
115 72 152 22 37 37 69 35 71 -2 3 -23 -28 -45 -69z"/>
<path d="M3486 2625 c-3 -9 -6 -22 -5 -28 0 -7 5 -1 10 12 5 13 8 26 5 28 -2
2 -6 -3 -10 -12z"/>
<path d="M3466 2554 c-4 -14 -5 -28 -3 -31 3 -2 8 8 11 23 4 14 5 28 3 31 -3
2 -8 -8 -11 -23z"/>
<path d="M3451 2494 c0 -11 3 -14 6 -6 3 7 2 16 -1 19 -3 4 -6 -2 -5 -13z"/>
<path d="M3441 2454 c0 -11 3 -14 6 -6 3 7 2 16 -1 19 -3 4 -6 -2 -5 -13z"/>
<path d="M3246 1775 c-9 -26 -7 -32 5 -12 6 10 9 21 6 23 -2 3 -7 -2 -11 -11z"/>
<path d="M3188 1760 c-10 -13 -18 -30 -18 -37 0 -7 -7 -13 -15 -13 -15 0 -20
-15 -29 -93 -3 -26 -17 -67 -31 -91 -14 -23 -25 -49 -25 -56 0 -8 16 17 35 56
19 38 35 77 35 87 0 11 12 22 30 29 17 5 35 18 40 28 13 25 13 32 -2 25 -7 -3
-3 2 10 11 12 9 22 21 22 26 0 6 -6 5 -14 -1 -12 -10 -15 -7 -18 21 l-3 33
-17 -25z m9 -50 c-1 -38 -6 -49 -17 -47 -17 2 -30 17 -30 32 0 6 4 4 9 -4 7
-11 12 -3 22 27 7 23 14 42 15 42 2 0 3 -22 1 -50z"/>
<path d="M3951 1254 c0 -11 3 -14 6 -6 3 7 2 16 -1 19 -3 4 -6 -2 -5 -13z"/>
<path d="M3911 1234 c0 -11 3 -14 6 -6 3 7 2 16 -1 19 -3 4 -6 -2 -5 -13z"/>
<path d="M3900 1176 c0 -2 8 -10 18 -17 15 -13 16 -12 3 4 -13 16 -21 21 -21
13z"/>
<path d="M3941 904 c0 -11 3 -14 6 -6 3 7 2 16 -1 19 -3 4 -6 -2 -5 -13z"/>
</g>
</svg>
