<?xml version="1.0" standalone="no"?>
<!DOCTYPE svg PUBLIC "-//W3C//DTD SVG 20010904//EN"
 "http://www.w3.org/TR/2001/REC-SVG-20010904/DTD/svg10.dtd">
<svg version="1.0" xmlns="http://www.w3.org/2000/svg"
 width="360.000000pt" height="360.000000pt" viewBox="0 0 360.000000 360.000000"
 preserveAspectRatio="xMidYMid meet">

<g transform="translate(0.000000,360.000000) scale(0.100000,-0.100000)"
fill="#000000" stroke="none">
<path d="M638 2790 c-101 -6 -131 -22 -165 -90 l-23 -44 0 -861 c0 -813 1
-862 19 -900 10 -22 28 -48 39 -58 52 -47 25 -46 1287 -47 789 0 1203 4 1227
10 21 6 51 22 68 37 63 53 60 -2 60 952 0 592 -3 879 -11 898 -13 36 -46 70
-84 91 -27 14 -149 16 -1180 16 -632 1 -1189 -1 -1237 -4z m2340 -997 l2 -833
-114 0 -114 0 -197 318 c-109 174 -208 328 -220 341 -30 31 -94 34 -125 6 -11
-10 -66 -90 -121 -178 l-100 -159 27 -47 c15 -25 58 -94 96 -153 69 -109 78
-128 56 -128 -24 0 -34 14 -152 205 -65 105 -130 208 -144 230 -14 22 -102
161 -194 309 -93 148 -173 275 -179 282 -20 25 -75 36 -118 24 -46 -12 -38 0
-442 -650 -263 -423 -248 -401 -283 -398 l-31 3 -3 824 c-2 653 0 826 10 833
7 4 537 7 1178 5 l1165 -2 3 -832z"/>
<path d="M2364 2476 c-118 -51 -183 -198 -139 -312 69 -181 290 -227 421 -87
111 117 68 326 -81 394 -48 22 -155 25 -201 5z"/>
</g>
</svg>
