<?xml version="1.0" standalone="no"?>
<!DOCTYPE svg PUBLIC "-//W3C//DTD SVG 20010904//EN"
 "http://www.w3.org/TR/2001/REC-SVG-20010904/DTD/svg10.dtd">
<svg version="1.0" xmlns="http://www.w3.org/2000/svg"
 width="360.000000pt" height="360.000000pt" viewBox="0 0 360.000000 360.000000"
 preserveAspectRatio="xMidYMid meet">

<g transform="translate(0.000000,360.000000) scale(0.100000,-0.100000)"
fill="#fff" stroke="none">
<path d="M1620 2835 c-236 -53 -435 -194 -556 -393 -61 -101 -70 -129 -51
-150 15 -16 15 -26 -3 -112 -11 -52 -20 -114 -20 -136 0 -37 -4 -44 -39 -67
-41 -27 -81 -95 -81 -138 0 -50 92 -434 111 -465 38 -63 115 -91 198 -73 69
14 113 46 128 92 12 35 8 61 -42 288 -30 138 -59 259 -65 269 -16 29 -59 59
-96 66 l-35 6 7 47 c15 111 35 181 52 181 11 0 29 24 49 63 87 166 227 284
408 344 70 23 96 27 210 27 114 0 140 -4 210 -27 185 -61 330 -187 419 -364
18 -37 32 -53 46 -53 23 0 36 -42 46 -146 l7 -72 -32 -7 c-45 -10 -89 -51
-101 -94 -5 -21 -32 -140 -60 -263 -41 -188 -48 -231 -39 -261 9 -33 42 -70
72 -80 7 -2 0 -27 -22 -73 -44 -89 -161 -209 -246 -251 -58 -29 -61 -30 -93
-15 -28 14 -42 14 -110 3 -101 -17 -137 -34 -157 -78 -14 -29 -15 -43 -6 -73
22 -75 72 -91 197 -66 64 13 84 22 107 46 15 17 27 36 27 43 0 7 24 24 53 39
135 67 248 180 314 316 36 76 40 80 81 91 57 15 87 36 112 76 28 45 113 427
106 478 -6 50 -47 111 -85 128 -27 12 -30 18 -36 84 -4 38 -13 99 -20 135 -12
56 -12 67 1 81 13 15 10 26 -29 102 -110 213 -300 370 -532 438 -94 27 -312
35 -405 14z"/>
<path d="M809 1780 c-40 -23 -41 -58 -9 -200 34 -151 51 -180 107 -180 28 0
33 3 29 18 -3 9 -22 89 -41 177 -20 88 -38 168 -41 178 -6 19 -21 21 -45 7z"/>
<path d="M2744 1763 c-4 -15 -24 -102 -44 -193 l-37 -165 30 -3 c53 -6 73 26
107 178 33 143 31 178 -11 200 -28 16 -38 12 -45 -17z"/>
</g>
</svg>
