<?xml version="1.0" standalone="no"?>
<!DOCTYPE svg PUBLIC "-//W3C//DTD SVG 20010904//EN"
 "http://www.w3.org/TR/2001/REC-SVG-20010904/DTD/svg10.dtd">
<svg version="1.0" xmlns="http://www.w3.org/2000/svg"
 width="1200.000000pt" height="1200.000000pt" viewBox="0 0 1200.000000 1200.000000"
 preserveAspectRatio="xMidYMid meet">

<g transform="translate(0.000000,1200.000000) scale(0.100000,-0.100000)"
fill="#fff" stroke="none">
<path d="M5900 8879 c-470 -236 -1042 -394 -1588 -440 -172 -14 -651 -6 -790
14 l-93 13 6 -190 c7 -230 22 -1165 30 -1801 9 -658 20 -786 90 -1031 194
-670 808 -1420 1587 -1937 252 -167 540 -319 761 -401 l97 -36 98 36 c124 46
365 162 507 243 569 327 1121 827 1457 1322 222 326 359 633 424 944 34 168
41 344 59 1505 8 547 17 1074 21 1171 l6 175 -94 -13 c-137 -20 -619 -28 -791
-14 -532 45 -1076 193 -1552 423 -71 34 -132 63 -135 63 -3 1 -48 -20 -100
-46z m240 -422 c598 -260 1247 -397 1885 -397 l171 0 -3 -32 c-1 -18 -9 -494
-18 -1058 -8 -564 -20 -1072 -26 -1130 -43 -434 -271 -874 -694 -1342 -305
-336 -752 -682 -1165 -900 -126 -66 -267 -128 -293 -128 -13 0 -104 40 -203
88 -893 440 -1668 1256 -1884 1983 -54 180 -60 242 -70 664 -12 505 -30 1571
-30 1733 l0 122 168 0 c640 0 1357 154 1912 409 58 27 110 47 115 45 6 -1 66
-27 135 -57z m2133 -44 c-7 -2 -19 -2 -25 0 -7 3 -2 5 12 5 14 0 19 -2 13 -5z
m54 -13 c3 -10 2 -11 -4 -4 -4 6 -15 14 -23 17 -11 5 -9 6 4 4 11 -1 21 -9 23
-17z m-193 -34 c-9 -15 -19 -25 -21 -22 -5 5 30 56 35 51 2 -2 -4 -15 -14 -29z
m41 -6 c-10 -11 -21 -17 -24 -14 -3 3 3 12 13 20 28 20 32 17 11 -6z m175 -4
c0 -2 -8 -10 -17 -17 -16 -13 -17 -12 -4 4 13 16 21 21 21 13z m32 -23 c-6 -3
-9 -10 -6 -15 4 -7 2 -8 -5 -4 -9 6 -9 11 0 22 6 8 15 12 18 8 3 -4 0 -9 -7
-11z m-112 -13 c0 -5 -5 -10 -11 -10 -5 0 -7 5 -4 10 3 6 8 10 11 10 2 0 4 -4
4 -10z m87 -32 c-3 -8 -6 -5 -6 6 -1 11 2 17 5 13 3 -3 4 -12 1 -19z m40 -10
c-3 -8 -6 -5 -6 6 -1 11 2 17 5 13 3 -3 4 -12 1 -19z m-162 -27 c3 -5 2 -12
-3 -15 -5 -3 -9 1 -9 9 0 17 3 19 12 6z m117 -13 c-7 -7 -12 -8 -12 -2 0 14
12 26 19 19 2 -3 -1 -11 -7 -17z m38 -3 c0 -8 -4 -15 -10 -15 -5 0 -7 7 -4 15
4 8 8 15 10 15 2 0 4 -7 4 -15z m-262 -27 l12 -33 -20 25 c-21 27 -25 40 -12
40 4 0 13 -15 20 -32z m232 -23 c-7 -9 -15 -13 -17 -11 -6 6 20 36 26 30 2 -2
-2 -10 -9 -19z m-347 -2 c-7 -2 -19 -2 -25 0 -7 3 -2 5 12 5 14 0 19 -2 13 -5z
m207 3 c0 -2 -9 -6 -20 -9 -11 -3 -18 -1 -14 4 5 9 34 13 34 5z m95 -6 c3 -6
-1 -7 -9 -4 -18 7 -21 14 -7 14 6 0 13 -4 16 -10z m-365 -4 c0 -2 -6 -9 -14
-15 -11 -9 -16 -9 -22 0 -4 7 -3 9 4 5 6 -3 13 -2 17 4 6 10 15 14 15 6z m106
-4 c6 -4 4 -13 -8 -24 -9 -10 -20 -13 -23 -9 -2 5 3 12 12 15 15 6 15 8 3 16
-8 6 -10 10 -5 10 6 0 15 -4 21 -8z m124 -12 c8 -5 11 -10 5 -10 -5 0 -17 5
-25 10 -8 5 -10 10 -5 10 6 0 17 -5 25 -10z m-177 -17 c-7 -2 -21 -2 -30 0
-10 3 -4 5 12 5 17 0 24 -2 18 -5z m110 -7 c3 -8 -4 -22 -16 -33 -22 -18 -22
-18 -5 3 14 16 15 23 6 32 -8 8 -8 12 -1 12 6 0 13 -6 16 -14z m144 -2 c-3 -3
-12 -4 -19 -1 -8 3 -5 6 6 6 11 1 17 -2 13 -5z m-327 -18 c0 -3 -4 -8 -10 -11
-5 -3 -10 -1 -10 4 0 6 5 11 10 11 6 0 10 -2 10 -4z"/>
<path d="M7545 7386 c-172 -147 -1050 -904 -1399 -1206 -105 -91 -219 -189
-252 -217 l-62 -53 -274 243 c-383 338 -468 412 -477 415 -8 3 -404 -461 -403
-473 1 -3 135 -126 299 -272 321 -286 527 -470 803 -716 96 -86 177 -157 180
-157 3 1 90 130 193 288 104 158 264 401 355 540 738 1118 1056 1600 1069
1620 21 30 14 28 -32 -12z"/>
</g>
</svg>
