<?xml version="1.0" encoding="UTF-8"?>
<svg version="1.1" xmlns="http://www.w3.org/2000/svg" width="512" height="512">
<path d="M0 0 C0.92248535 0.1556543 1.8449707 0.31130859 2.79541016 0.47167969 C42.76917681 7.49002806 81.24975533 24.75670954 113 50 C113.9075 50.71542969 114.815 51.43085937 115.75 52.16796875 C130.48810705 63.99613705 144.40027571 77.05603889 156 92 C156.45487793 92.5784668 156.90975586 93.15693359 157.37841797 93.75292969 C182.52092557 125.82579772 199.89938455 163.12243978 207.75 203.125 C207.94883789 204.13667236 208.14767578 205.14834473 208.35253906 206.19067383 C211.21429031 221.60756099 212.38539491 236.90008074 212.3125 252.5625 C212.30976578 253.79566452 212.30976578 253.79566452 212.30697632 255.05374146 C212.25450649 269.20367608 211.43106643 283.03720164 209 297 C208.76651855 298.38155273 208.76651855 298.38155273 208.52832031 299.79101562 C202.63417301 333.36765512 189.4149549 366.90891189 170 395 C169.59861816 395.59232422 169.19723633 396.18464844 168.78369141 396.79492188 C162.74393282 405.68353293 156.08706408 413.92996067 149 422 C148.24976563 422.86238281 147.49953125 423.72476562 146.7265625 424.61328125 C137.5673724 434.97936824 127.91531227 444.48515059 117 453 C116.01644531 453.78890625 115.03289062 454.5778125 114.01953125 455.390625 C69.47987198 490.82867121 13.17963756 509.58300374 -43.5625 509.3125 C-44.79716003 509.30926727 -44.79716003 509.30926727 -46.0567627 509.30596924 C-85.16889418 509.14274256 -122.84764715 500.2220435 -158 483 C-158.7326709 482.64325195 -159.4653418 482.28650391 -160.22021484 481.91894531 C-176.64376802 473.82746746 -191.82137435 463.55894744 -206 452 C-206.55075195 451.55221191 -207.10150391 451.10442383 -207.66894531 450.64306641 C-221.03493434 439.68752497 -233.4236461 427.69401046 -244 414 C-245.16015625 412.56527344 -245.16015625 412.56527344 -246.34375 411.1015625 C-274.05949863 376.28146058 -290.68501074 334.64811774 -298 291 C-298.19916016 289.83597656 -298.19916016 289.83597656 -298.40234375 288.6484375 C-302.55923646 262.95977469 -301.27060669 234.52949849 -297 209 C-296.8443457 208.06188477 -296.68869141 207.12376953 -296.52832031 206.15722656 C-289.56372423 166.21853484 -272.2006106 127.70846059 -247 96 C-246.29617187 95.10410156 -245.59234375 94.20820312 -244.8671875 93.28515625 C-238.92658072 85.8647209 -232.54195442 78.88841306 -226 72 C-225.21496094 71.17242187 -224.42992187 70.34484375 -223.62109375 69.4921875 C-218.11876265 63.84220888 -212.16311284 58.90929905 -206 54 C-205.24460937 53.36578125 -204.48921875 52.7315625 -203.7109375 52.078125 C-190.97120719 41.48357265 -176.66479558 32.66151202 -162 25 C-161.25540527 24.60603027 -160.51081055 24.21206055 -159.74365234 23.80615234 C-137.4378061 12.14722338 -112.82057023 4.11828767 -88 0 C-87.03868164 -0.16081055 -86.07736328 -0.32162109 -85.08691406 -0.48730469 C-57.28669329 -4.89787292 -27.73240745 -4.80085735 0 0 Z M-178 82 C-179.0003125 82.79535156 -180.000625 83.59070313 -181.03125 84.41015625 C-195.25206808 95.96526456 -208.34685399 109.07142289 -219 124 C-219.47211914 124.65484375 -219.94423828 125.3096875 -220.43066406 125.984375 C-253.49545869 172.30556195 -267.62868717 229.72296176 -259.0390625 286.125 C-251.43738055 331.03990808 -231.50135766 371.13636439 -200 404 C-199.49742676 404.52980469 -198.99485352 405.05960937 -198.47705078 405.60546875 C-190.57553493 413.89849007 -182.28338911 421.2858669 -173 428 C-172.0090332 428.71687988 -172.0090332 428.71687988 -170.99804688 429.44824219 C-124.67858752 462.49933336 -67.26719492 476.6271881 -10.875 468.0390625 C34.03990808 460.43738055 74.13636439 440.50135766 107 409 C107.52980469 408.49742676 108.05960937 407.99485352 108.60546875 407.47705078 C125.76440366 391.12817248 138.99882571 371.93397984 150 351 C150.34272949 350.34870117 150.68545898 349.69740234 151.03857422 349.02636719 C161.27485342 329.2398208 167.28367566 307.89252886 171 286 C171.13132324 285.23623047 171.26264648 284.47246094 171.39794922 283.68554688 C180.19836737 229.62407211 164.98006344 172.27003799 133.76171875 127.8125 C131.56872364 124.8209898 129.31183886 121.90051958 127 119 C126.20464844 117.9996875 125.40929687 116.999375 124.58984375 115.96875 C105.0309722 91.8977377 81.3636978 73.38010407 54 59 C53.34870117 58.65727051 52.69740234 58.31454102 52.02636719 57.96142578 C32.2398208 47.72514658 10.89252886 41.71632434 -11 38 C-11.76376953 37.86867676 -12.52753906 37.73735352 -13.31445312 37.60205078 C-70.87557693 28.2319409 -132.6871122 45.88367948 -178 82 Z " fill="#fff" transform="translate(300,3)"/>
<path d="M0 0 C3.81451774 3.0986197 7.23647412 6.57229239 10.68286133 10.06762695 C11.73229997 11.11356031 12.78281622 12.15841338 13.83432007 13.20227051 C16.67403849 16.02779193 19.4979343 18.86864762 22.31876969 21.7130053 C25.27876583 24.69317006 28.25180783 27.66026985 31.22306824 30.62919617 C36.20872372 35.61490515 41.18445345 40.61034994 46.15405273 45.61206055 C51.89413341 51.38905089 57.64816353 57.15184327 63.41020948 62.90691978 C68.96177373 68.45217282 74.50475458 74.00592436 80.04340172 79.56407738 C82.39686797 81.92570373 84.75302952 84.28459129 87.11136818 86.6413517 C89.88862963 89.4177324 92.65819833 92.20157072 95.42206955 94.9912796 C96.43574234 96.0120966 97.45194494 97.03040885 98.47088051 98.04597282 C99.86452277 99.4358829 101.24797574 100.83598709 102.63093567 102.23652649 C103.40683454 103.01615407 104.1827334 103.79578165 104.98214436 104.59903431 C108.69979429 109.02251721 110.43883562 113.11025676 110.5 118.875 C110.54640625 120.32519531 110.54640625 120.32519531 110.59375 121.8046875 C108.90735425 130.88015934 101.17554343 137.26008428 94.90478516 143.49926758 C93.88032351 144.52944123 92.85649116 145.56024103 91.83323669 146.59161377 C89.06954858 149.37315125 86.29648018 152.1451495 83.52099657 154.91491151 C81.199531 157.23327497 78.88268835 159.55623128 76.56578958 161.87915725 C71.09949946 167.35946237 65.62548719 172.83196725 60.14648438 178.29956055 C54.50260306 183.93194819 48.87164538 189.57702198 43.24691355 195.22852784 C38.40644215 200.09117161 33.55823131 204.94600144 28.70372808 209.79463691 C25.8090173 212.68598248 22.91725661 215.58012572 20.03285599 218.48176003 C17.32161976 221.20848901 14.60081048 223.92529306 11.87243843 226.63487244 C10.87532747 227.62830481 9.88158259 228.62512948 8.89156532 229.62563133 C-1.34939247 239.96669286 -1.34939247 239.96669286 -9.37109375 241.43359375 C-15.73127741 241.44561678 -20.79825859 239.96608024 -25.5390625 235.57421875 C-30.34591088 230.13489032 -31.21878986 225.61104597 -31.36328125 218.59765625 C-29.5735722 205.80027431 -13.77409018 194.63954174 -4.99609375 185.8984375 C-3.81361435 184.71743245 -2.63136312 183.53619888 -1.44934082 182.35473633 C1.16989532 179.73789041 3.79091881 177.12285047 6.41311646 174.50897217 C12.70150238 168.24041321 18.98594859 161.96790646 25.27086437 155.69586873 C28.56138941 152.41212355 31.8520411 149.12850528 35.14268494 145.84487915 C36.28195729 144.70802687 37.42122909 143.57117403 38.56050014 142.43432045 C39.3655351 141.6309947 40.17057005 140.82766895 41 140 C40.13731538 139.99761165 39.27463076 139.99522329 38.38580418 139.99276257 C17.37769582 139.93358118 -3.63029811 139.85801091 -24.63828182 139.76428509 C-34.79766234 139.71935328 -44.95700802 139.67993255 -55.11645508 139.65356445 C-63.9732475 139.63056323 -72.8299294 139.59714141 -81.68663412 139.55129844 C-86.37454551 139.52739492 -91.06234762 139.50864732 -95.75031853 139.50238609 C-100.16706903 139.49632226 -104.58354004 139.47627558 -109.00018692 139.44572449 C-110.61700688 139.43696505 -112.23386339 139.43321733 -113.8507061 139.43499184 C-132.73570042 139.44916829 -132.73570042 139.44916829 -140.375 133.6875 C-144.87733876 129.07796269 -146.19517244 125.50231342 -146.5 119.125 C-146.30870097 111.78276093 -143.68432554 107.75687488 -138.6875 102.625 C-130.52243276 97.6879826 -120.78317378 98.69293407 -111.578125 98.68115234 C-109.91193663 98.67184461 -108.24575288 98.66167468 -106.57957458 98.65071106 C-102.07400345 98.62349232 -97.56846345 98.60828581 -93.06283188 98.59528303 C-88.3475972 98.57961684 -83.63242574 98.55283777 -78.91723633 98.5272522 C-69.99624444 98.48052609 -61.07524057 98.44375216 -52.15418911 98.41057932 C-41.99454467 98.3723143 -31.83496384 98.32291564 -21.67537308 98.27259517 C-0.78362906 98.16936707 20.10815525 98.08007706 41 98 C40.16950134 97.17394257 39.33900269 96.34788513 38.4833374 95.49679565 C30.65033749 87.70437134 22.82264834 79.90664698 15.000103 72.10372734 C10.97846744 68.09252078 6.95499607 64.08319263 2.92724609 60.078125 C-0.96100414 56.21163441 -4.84432246 52.34025282 -8.72429657 48.46545792 C-10.20407943 46.98936518 -11.68561906 45.51503142 -13.16895294 44.04250717 C-15.24917531 41.97684092 -17.32301544 39.90496073 -19.39550781 37.83154297 C-20.00762619 37.22661514 -20.61974457 36.62168732 -21.25041199 35.99842834 C-26.72625253 30.49614079 -31.07088393 25.4129965 -31.3125 17.3125 C-31.23429831 11.35179376 -29.65721605 6.86105728 -25.57421875 2.46484375 C-17.97173151 -4.27327802 -8.82233255 -4.90236328 0 0 Z " fill="#fff" transform="translate(274,137)"/>
</svg>
