<?xml version="1.0" standalone="no"?>
<!DOCTYPE svg PUBLIC "-//W3C//DTD SVG 20010904//EN"
 "http://www.w3.org/TR/2001/REC-SVG-20010904/DTD/svg10.dtd">
<svg version="1.0" xmlns="http://www.w3.org/2000/svg"
 width="1152.000000pt" height="1024.000000pt" viewBox="0 0 1152.000000 1024.000000"
 preserveAspectRatio="xMidYMid meet">

<g transform="translate(0.000000,1024.000000) scale(0.100000,-0.100000)"
fill="#000000" stroke="none">
<path d="M361 10224 c-169 -45 -301 -180 -346 -351 -21 -82 -21 -465 0 -548
45 -172 179 -305 352 -350 48 -13 172 -15 785 -15 400 0 728 -3 728 -6 0 -3
313 -1534 695 -3402 382 -1868 697 -3411 701 -3428 6 -29 2 -33 -58 -74 -261
-177 -437 -453 -483 -760 -65 -426 120 -853 476 -1097 124 -85 303 -155 459
-178 677 -103 1288 421 1290 1105 0 262 -98 525 -274 733 l-57 67 2091 0 2092
0 -50 -58 c-224 -261 -318 -580 -267 -912 45 -302 223 -583 476 -757 124 -85
303 -155 459 -178 677 -103 1290 422 1290 1105 0 270 -102 535 -287 747 -69
79 -198 183 -280 226 -35 17 -63 35 -63 38 0 4 25 116 56 250 31 134 59 273
61 309 18 225 -138 436 -364 495 -50 13 -398 15 -2770 15 -1492 0 -2713 3
-2713 6 0 9 -120 597 -126 616 -5 17 147 18 2978 20 l2983 3 58 22 c128 48
241 157 285 275 34 92 982 4280 982 4340 0 213 -154 408 -367 463 -50 13 -539
15 -4013 15 l-3956 0 -96 470 c-108 528 -118 559 -213 659 -62 66 -143 113
-230 136 -86 22 -2201 22 -2284 -1z"/>
</g>
</svg>
